zaklad.ufo
<glyph name="exclam" format="1">
  <unicode hex="0021"/>
  <advance width="375"/>
  <outline>
    <contour>
      <point x="25" y="611" type="line"/>
      <point x="15" y="601" type="line"/>
      <point x="15" y="473" type="line"/>
      <point x="55" y="245" type="line"/>
      <point x="65" y="235" type="line"/>
      <point x="310" y="235" type="line"/>
      <point x="320" y="245" type="line"/>
      <point x="360" y="473" type="line"/>
      <point x="360" y="601" type="line"/>
      <point x="350" y="611" type="line"/>
    </contour>
    <contour>
      <point x="113" y="200" type="line"/>
      <point x="60" y="149" type="line"/>
      <point x="60" y="51" type="line"/>
      <point x="113" y="0" type="line"/>
      <point x="262" y="0" type="line"/>
      <point x="314" y="51" type="line"/>
      <point x="314" y="149" type="line"/>
      <point x="262" y="200" type="line"/>
    </contour>
  </outline>
</glyph>
<glyph name="numbersign" format="1">
  <unicode hex="0023"/>
  <advance width="645"/>
  <outline>
    <contour>
      <point x="95" y="611" type="line"/>
      <point x="85" y="601" type="line"/>
      <point x="85" y="509" type="line"/>
      <point x="20" y="509" type="line"/>
      <point x="10" y="499" type="line"/>
      <point x="10" y="368" type="line"/>
      <point x="20" y="358" type="line"/>
      <point x="85" y="358" type="line"/>
      <point x="85" y="274" type="line"/>
      <point x="20" y="274" type="line"/>
      <point x="10" y="264" type="line"/>
      <point x="10" y="133" type="line"/>
      <point x="20" y="123" type="line"/>
      <point x="85" y="123" type="line"/>
      <point x="85" y="10" type="line"/>
      <point x="95" y="0" type="line"/>
      <point x="280" y="0" type="line"/>
      <point x="290" y="10" type="line"/>
      <point x="290" y="123" type="line"/>
      <point x="355" y="123" type="line"/>
      <point x="355" y="10" type="line"/>
      <point x="365" y="0" type="line"/>
      <point x="550" y="0" type="line"/>
      <point x="560" y="10" type="line"/>
      <point x="560" y="123" type="line"/>
      <point x="625" y="123" type="line"/>
      <point x="635" y="133" type="line"/>
      <point x="635" y="264" type="line"/>
      <point x="625" y="274" type="line"/>
      <point x="560" y="274" type="line"/>
      <point x="560" y="358" type="line"/>
      <point x="625" y="358" type="line"/>
      <point x="635" y="368" type="line"/>
      <point x="635" y="499" type="line"/>
      <point x="625" y="509" type="line"/>
      <point x="560" y="509" type="line"/>
      <point x="560" y="600" type="line"/>
      <point x="550" y="611" type="line"/>
      <point x="365" y="611" type="line"/>
      <point x="355" y="601" type="line"/>
      <point x="355" y="509" type="line"/>
      <point x="290" y="509" type="line"/>
      <point x="290" y="600" type="line"/>
      <point x="280" y="611" type="line"/>
    </contour>
    <contour>
      <point x="290" y="358" type="line"/>
      <point x="355" y="358" type="line"/>
      <point x="355" y="274" type="line"/>
      <point x="290" y="274" type="line"/>
    </contour>
  </outline>
</glyph>
<glyph name="dollar" format="1">
  <unicode hex="0024"/>
  <advance width="735"/>
  <outline>
    <contour>
      <point x="115" y="611" type="line"/>
      <point x="20" y="522" type="line"/>
      <point x="20" y="296" type="line"/>
      <point x="116" y="206" type="line"/>
      <point x="400" y="206" type="line"/>
      <point x="400" y="161" type="line"/>
      <point x="30" y="161" type="line"/>
      <point x="20" y="151" type="line"/>
      <point x="20" y="10" type="line"/>
      <point x="30" y="0" type="line"/>
      <point x="291" y="0" type="line"/>
      <point x="286" y="-127" type="line"/>
      <point x="296" y="-137" type="line"/>
      <point x="436" y="-137" type="line"/>
      <point x="446" y="-127" type="line"/>
      <point x="441" y="0" type="line"/>
      <point x="620" y="0" type="line"/>
      <point x="715" y="90" type="line"/>
      <point x="715" y="266" type="line"/>
      <point x="620" y="356" type="line"/>
      <point x="335" y="356" type="line"/>
      <point x="335" y="516" type="line" name="hr01"/>
      <point x="400" y="516" type="line"/>
      <point x="400" y="406" type="line"/>
      <point x="410" y="396" type="line" name="hr02"/>
      <point x="695" y="396" type="line"/>
      <point x="705" y="406" type="line"/>
      <point x="705" y="571" type="line"/>
      <point x="665" y="611" type="line"/>
      <point x="441" y="611" type="line"/>
      <point x="446" y="728" type="line"/>
      <point x="436" y="738" type="line" name="hr03"/>
      <point x="296" y="738" type="line"/>
      <point x="286" y="728" type="line"/>
      <point x="291" y="611" type="line" name="hr04"/>
    </contour>
  </outline>
</glyph>
<glyph name="percent" format="1">
  <unicode hex="0025"/>
  <advance width="1206"/>
  <outline>
    <contour>
      <point x="104" y="611" type="line"/>
      <point x="5" y="516" type="line"/>
      <point x="5" y="330" type="line"/>
      <point x="104" y="235" type="line"/>
      <point x="383" y="235" type="line"/>
      <point x="482" y="330" type="line"/>
      <point x="482" y="516" type="line"/>
      <point x="383" y="611" type="line"/>
    </contour>
    <contour>
      <point x="212" y="536" type="line"/>
      <point x="275" y="536" type="line"/>
      <point x="275" y="310" type="line"/>
      <point x="212" y="310" type="line"/>
    </contour>
    <contour>
      <point x="823" y="376" type="line" name="hr01"/>
      <point x="724" y="281" type="line"/>
      <point x="724" y="95" type="line"/>
      <point x="823" y="0" type="line"/>
      <point x="1102" y="0" type="line"/>
      <point x="1201" y="95" type="line"/>
      <point x="1201" y="281" type="line"/>
      <point x="1102" y="376" type="line"/>
    </contour>
    <contour>
      <point x="931" y="301" type="line"/>
      <point x="994" y="301" type="line"/>
      <point x="994" y="75" type="line"/>
      <point x="931" y="75" type="line"/>
    </contour>
    <contour>
      <point x="607" y="611" type="line"/>
      <point x="597" y="601" type="line"/>
      <point x="432" y="95" type="line"/>
      <point x="432" y="10" type="line"/>
      <point x="442" y="0" type="line"/>
      <point x="599" y="0" type="line"/>
      <point x="609" y="10" type="line"/>
      <point x="774" y="516" type="line"/>
      <point x="774" y="601" type="line"/>
      <point x="764" y="611" type="line"/>
    </contour>
  </outline>
</glyph>
<glyph name="ampersand" format="1">
  <unicode hex="0026"/>
  <advance width="930"/>
  <outline>
    <contour>
      <point x="525" y="611" type="line"/>
      <point x="515" y="601" type="line"/>
      <point x="515" y="388" type="line"/>
      <point x="335" y="388" type="line"/>
      <point x="335" y="460" type="line"/>
      <point x="440" y="460" type="line"/>
      <point x="450" y="470" type="line"/>
      <point x="450" y="601" type="line"/>
      <point x="440" y="611" type="line"/>
      <point x="40" y="611" type="line"/>
      <point x="30" y="601" type="line"/>
      <point x="30" y="10" type="line"/>
      <point x="40" y="0" type="line"/>
      <point x="440" y="0" type="line"/>
      <point x="450" y="10" type="line"/>
      <point x="450" y="141" type="line"/>
      <point x="440" y="151" type="line"/>
      <point x="335" y="151" type="line"/>
      <point x="335" y="237" type="line"/>
      <point x="515" y="237" type="line"/>
      <point x="515" y="10" type="line"/>
      <point x="525" y="0" type="line"/>
      <point x="820" y="0" type="line"/>
      <point x="830" y="10" type="line"/>
      <point x="830" y="227" type="line"/>
      <point x="915" y="227" type="line"/>
      <point x="925" y="237" type="line"/>
      <point x="925" y="398" type="line"/>
      <point x="915" y="408" type="line" name="hr01"/>
      <point x="830" y="408" type="line"/>
      <point x="830" y="600" type="line"/>
      <point x="820" y="611" type="line"/>
    </contour>
  </outline>
</glyph>
<glyph name="parenleft" format="1">
  <unicode hex="0028"/>
  <advance width="275"/>
  <outline>
    <contour>
      <point x="155" y="651" type="line"/>
      <point x="30" y="531" type="line"/>
      <point x="30" y="-47" type="line"/>
      <point x="154" y="-167" type="line"/>
      <point x="235" y="-167" type="line"/>
      <point x="245" y="-157" type="line"/>
      <point x="245" y="640" type="line"/>
      <point x="235" y="651" type="line"/>
    </contour>
  </outline>
</glyph>
<glyph name="asterisk" format="1">
  <unicode hex="002A"/>
  <advance width="457"/>
  <outline>
    <contour>
      <point x="374" y="380" type="line"/>
      <point x="436" y="406" type="line"/>
      <point x="436" y="473" type="line"/>
      <point x="372" y="500" type="line"/>
      <point x="397" y="561" type="line"/>
      <point x="349" y="610" type="line"/>
      <point x="286" y="583" type="line"/>
      <point x="262" y="641" type="line"/>
      <point x="190" y="641" type="line"/>
      <point x="166" y="581" type="line"/>
      <point x="105" y="607" type="line"/>
      <point x="56" y="558" type="line"/>
      <point x="82" y="495" type="line"/>
      <point x="20" y="469" type="line"/>
      <point x="20" y="401" type="line"/>
      <point x="84" y="375" type="line"/>
      <point x="59" y="314" type="line"/>
      <point x="108" y="265" type="line"/>
      <point x="171" y="291" type="line"/>
      <point x="194" y="234" type="line"/>
      <point x="266" y="234" type="line"/>
      <point x="291" y="293" type="line"/>
      <point x="352" y="268" type="line"/>
      <point x="400" y="317" type="line"/>
    </contour>
  </outline>
</glyph>
<glyph name="plus" format="1">
  <unicode hex="002B"/>
  <advance width="595"/>
  <outline>
    <contour>
      <point x="387" y="527" type="line"/>
      <point x="377" y="537" type="line"/>
      <point x="217" y="537" type="line"/>
      <point x="207" y="527" type="line"/>
      <point x="207" y="364" type="line"/>
      <point x="25" y="364" type="line"/>
      <point x="15" y="354" type="line"/>
      <point x="15" y="194" type="line"/>
      <point x="25" y="184" type="line"/>
      <point x="207" y="184" type="line"/>
      <point x="207" y="10" type="line"/>
      <point x="217" y="0" type="line"/>
      <point x="377" y="0" type="line"/>
      <point x="387" y="10" type="line"/>
      <point x="387" y="184" type="line"/>
      <point x="570" y="184" type="line"/>
      <point x="580" y="194" type="line"/>
      <point x="580" y="354" type="line"/>
      <point x="570" y="364" type="line"/>
      <point x="387" y="364" type="line"/>
    </contour>
  </outline>
</glyph>
<glyph name="hyphen" format="1">
  <unicode hex="002D"/>
  <advance width="355"/>
  <outline>
    <contour>
      <point x="25" y="364" type="line"/>
      <point x="15" y="354" type="line"/>
      <point x="15" y="194" type="line"/>
      <point x="25" y="184" type="line"/>
      <point x="330" y="184" type="line"/>
      <point x="340" y="194" type="line"/>
      <point x="340" y="354" type="line"/>
      <point x="330" y="364" type="line"/>
    </contour>
  </outline>
</glyph>
<glyph name="period" format="1">
  <unicode hex="002E"/>
  <advance width="274"/>
  <outline>
    <contour>
      <point x="63" y="200" type="line"/>
      <point x="10" y="149" type="line"/>
      <point x="10" y="51" type="line"/>
      <point x="63" y="0" type="line"/>
      <point x="212" y="0" type="line"/>
      <point x="264" y="51" type="line"/>
      <point x="264" y="149" type="line"/>
      <point x="212" y="200" type="line"/>
    </contour>
  </outline>
</glyph>
<glyph name="slash" format="1">
  <unicode hex="002F"/>
  <advance width="339"/>
  <outline>
    <contour>
      <point x="157" y="651" type="line"/>
      <point x="147" y="641" type="line"/>
      <point x="-5" y="-72" type="line"/>
      <point x="-5" y="-157" type="line"/>
      <point x="5" y="-167" type="line"/>
      <point x="182" y="-167" type="line"/>
      <point x="192" y="-157" type="line"/>
      <point x="344" y="556" type="line"/>
      <point x="344" y="641" type="line"/>
      <point x="334" y="651" type="line"/>
    </contour>
  </outline>
</glyph>
<glyph name="zero" format="1">
  <unicode hex="0030"/>
  <advance width="735"/>
  <outline>
    <contour>
      <point x="145" y="611" type="line"/>
      <point x="20" y="491" type="line"/>
      <point x="20" y="120" type="line"/>
      <point x="145" y="0" type="line"/>
      <point x="590" y="0" type="line"/>
      <point x="715" y="120" type="line"/>
      <point x="715" y="491" type="line"/>
      <point x="590" y="611" type="line"/>
    </contour>
    <contour>
      <point x="335" y="516" type="line"/>
      <point x="400" y="516" type="line"/>
      <point x="400" y="95" type="line"/>
      <point x="335" y="95" type="line"/>
    </contour>
  </outline>
</glyph>
<glyph name="one" format="1">
  <unicode hex="0031"/>
  <advance width="470"/>
  <outline>
    <contour>
      <point x="20" y="611" type="line"/>
      <point x="10" y="601" type="line"/>
      <point x="10" y="470" type="line"/>
      <point x="20" y="460" type="line"/>
      <point x="85" y="460" type="line"/>
      <point x="85" y="151" type="line"/>
      <point x="20" y="151" type="line"/>
      <point x="10" y="141" type="line"/>
      <point x="10" y="10" type="line"/>
      <point x="20" y="0" type="line"/>
      <point x="455" y="0" type="line"/>
      <point x="465" y="10" type="line"/>
      <point x="465" y="141" type="line"/>
      <point x="455" y="151" type="line"/>
      <point x="390" y="151" type="line"/>
      <point x="390" y="601" type="line"/>
      <point x="380" y="611" type="line"/>
    </contour>
  </outline>
</glyph>
<glyph name="two" format="1">
  <unicode hex="0032"/>
  <advance width="617"/>
  <outline>
    <contour>
      <point x="287" y="385" type="line"/>
      <point x="25" y="244" type="line"/>
      <point x="25" y="10" type="line"/>
      <point x="35" y="0" type="line"/>
      <point x="582" y="0" type="line"/>
      <point x="592" y="10" type="line"/>
      <point x="592" y="171" type="line"/>
      <point x="582" y="181" type="line"/>
      <point x="344" y="181" type="line"/>
      <point x="592" y="315" type="line"/>
      <point x="592" y="601" type="line"/>
      <point x="582" y="611" type="line"/>
      <point x="35" y="611" type="line"/>
      <point x="25" y="601" type="line"/>
      <point x="25" y="440" type="line"/>
      <point x="35" y="430" type="line"/>
      <point x="287" y="430" type="line"/>
    </contour>
  </outline>
</glyph>
<glyph name="three" format="1">
  <unicode hex="0033"/>
  <advance width="485"/>
  <outline>
    <contour>
      <point x="35" y="611" type="line"/>
      <point x="25" y="601" type="line"/>
      <point x="25" y="470" type="line"/>
      <point x="35" y="460" type="line"/>
      <point x="160" y="460" type="line"/>
      <point x="160" y="388" type="line"/>
      <point x="85" y="388" type="line"/>
      <point x="75" y="378" type="line"/>
      <point x="75" y="247" type="line"/>
      <point x="85" y="237" type="line"/>
      <point x="160" y="237" type="line"/>
      <point x="160" y="151" type="line"/>
      <point x="35" y="151" type="line"/>
      <point x="25" y="141" type="line"/>
      <point x="25" y="10" type="line"/>
      <point x="35" y="0" type="line"/>
      <point x="455" y="0" type="line"/>
      <point x="465" y="10" type="line"/>
      <point x="465" y="207" type="line"/>
      <point x="347" y="315" type="line"/>
      <point x="465" y="423" type="line"/>
      <point x="465" y="601" type="line"/>
      <point x="455" y="611" type="line"/>
    </contour>
  </outline>
</glyph>
<glyph name="four" format="1">
  <unicode hex="0034"/>
  <advance width="780"/>
  <outline>
    <contour>
      <point x="685" y="601" type="line"/>
      <point x="675" y="611" type="line"/>
      <point x="400" y="611" type="line"/>
      <point x="390" y="601" type="line"/>
      <point x="390" y="248" type="line"/>
      <point x="325" y="248" type="line"/>
      <point x="325" y="601" type="line"/>
      <point x="315" y="611" type="line"/>
      <point x="135" y="611" type="line"/>
      <point x="10" y="298" type="line"/>
      <point x="10" y="106" type="line"/>
      <point x="20" y="96" type="line"/>
      <point x="380" y="96" type="line"/>
      <point x="380" y="10" type="line"/>
      <point x="390" y="0" type="line"/>
      <point x="675" y="0" type="line"/>
      <point x="685" y="10" type="line"/>
      <point x="685" y="96" type="line"/>
      <point x="750" y="96" type="line"/>
      <point x="760" y="106" type="line"/>
      <point x="760" y="237" type="line"/>
      <point x="750" y="247" type="line"/>
      <point x="685" y="247" type="line"/>
    </contour>
  </outline>
</glyph>
<glyph name="five" format="1">
  <unicode hex="0035"/>
  <advance width="705"/>
  <outline>
    <contour>
      <point x="25" y="244" type="line"/>
      <point x="35" y="234" type="line"/>
      <point x="380" y="234" type="line"/>
      <point x="380" y="125" type="line"/>
      <point x="315" y="125" type="line"/>
      <point x="315" y="179" type="line"/>
      <point x="305" y="189" type="line" name="hr01"/>
      <point x="35" y="189" type="line"/>
      <point x="25" y="179" type="line"/>
      <point x="25" y="10" type="line"/>
      <point x="35" y="0" type="line"/>
      <point x="555" y="0" type="line"/>
      <point x="680" y="120" type="line"/>
      <point x="680" y="375" type="line"/>
      <point x="670" y="385" type="line"/>
      <point x="315" y="385" type="line"/>
      <point x="315" y="430" type="line"/>
      <point x="670" y="430" type="line"/>
      <point x="680" y="440" type="line"/>
      <point x="680" y="601" type="line"/>
      <point x="670" y="611" type="line"/>
      <point x="35" y="611" type="line"/>
      <point x="25" y="601" type="line"/>
    </contour>
  </outline>
</glyph>
<glyph name="six" format="1">
  <unicode hex="0036"/>
  <advance width="705"/>
  <outline>
    <contour>
      <point x="25" y="10" type="line"/>
      <point x="35" y="0" type="line"/>
      <point x="670" y="0" type="line"/>
      <point x="680" y="10" type="line"/>
      <point x="680" y="375" type="line"/>
      <point x="670" y="385" type="line"/>
      <point x="315" y="385" type="line"/>
      <point x="315" y="430" type="line"/>
      <point x="670" y="430" type="line"/>
      <point x="680" y="440" type="line"/>
      <point x="680" y="601" type="line"/>
      <point x="670" y="611" type="line"/>
      <point x="35" y="611" type="line"/>
      <point x="25" y="601" type="line"/>
    </contour>
    <contour>
      <point x="380" y="290" type="line"/>
      <point x="380" y="151" type="line"/>
      <point x="315" y="151" type="line"/>
      <point x="315" y="290" type="line"/>
    </contour>
  </outline>
</glyph>
<glyph name="seven" format="1">
  <unicode hex="0037"/>
  <advance width="518"/>
  <outline>
    <contour>
      <point x="403" y="251" type="line"/>
      <point x="503" y="315" type="line"/>
      <point x="503" y="601" type="line"/>
      <point x="493" y="611" type="line"/>
      <point x="15" y="611" type="line"/>
      <point x="5" y="601" type="line"/>
      <point x="5" y="440" type="line"/>
      <point x="15" y="430" type="line"/>
      <point x="198" y="430" type="line"/>
      <point x="198" y="385" type="line"/>
      <point x="98" y="321" type="line"/>
      <point x="98" y="10" type="line"/>
      <point x="108" y="0" type="line"/>
      <point x="393" y="0" type="line"/>
      <point x="403" y="10" type="line"/>
    </contour>
  </outline>
</glyph>
<glyph name="eight" format="1">
  <unicode hex="0038"/>
  <advance width="725"/>
  <outline>
    <contour>
      <point x="35" y="611" type="line"/>
      <point x="25" y="601" type="line"/>
      <point x="25" y="423" type="line"/>
      <point x="143" y="315" type="line"/>
      <point x="25" y="207" type="line"/>
      <point x="25" y="10" type="line"/>
      <point x="35" y="0" type="line"/>
      <point x="690" y="0" type="line"/>
      <point x="700" y="10" type="line"/>
      <point x="700" y="207" type="line"/>
      <point x="582" y="315" type="line"/>
      <point x="700" y="423" type="line"/>
      <point x="700" y="601" type="line"/>
      <point x="690" y="611" type="line"/>
    </contour>
    <contour>
      <point x="330" y="265" type="line"/>
      <point x="395" y="265" type="line"/>
      <point x="395" y="151" type="line"/>
      <point x="330" y="151" type="line"/>
    </contour>
    <contour>
      <point x="330" y="460" type="line"/>
      <point x="395" y="460" type="line"/>
      <point x="395" y="360" type="line"/>
      <point x="330" y="360" type="line"/>
    </contour>
  </outline>
</glyph>
<glyph name="nine" format="1">
  <unicode hex="0039"/>
  <advance width="705"/>
  <outline>
    <contour>
      <point x="680" y="601" type="line"/>
      <point x="670" y="611" type="line"/>
      <point x="35" y="611" type="line"/>
      <point x="25" y="601" type="line"/>
      <point x="25" y="236" type="line"/>
      <point x="35" y="226" type="line"/>
      <point x="390" y="226" type="line"/>
      <point x="390" y="181" type="line"/>
      <point x="35" y="181" type="line"/>
      <point x="25" y="171" type="line"/>
      <point x="25" y="10" type="line"/>
      <point x="35" y="0" type="line"/>
      <point x="670" y="0" type="line"/>
      <point x="680" y="10" type="line"/>
    </contour>
    <contour>
      <point x="325" y="321" type="line"/>
      <point x="325" y="460" type="line"/>
      <point x="390" y="460" type="line"/>
      <point x="390" y="321" type="line"/>
    </contour>
  </outline>
</glyph>
<glyph name="colon" format="1">
  <unicode hex="003A"/>
  <advance width="274"/>
  <outline>
    <contour>
      <point x="63" y="200" type="line"/>
      <point x="10" y="149" type="line"/>
      <point x="10" y="51" type="line"/>
      <point x="63" y="0" type="line"/>
      <point x="212" y="0" type="line"/>
      <point x="264" y="51" type="line"/>
      <point x="264" y="149" type="line"/>
      <point x="212" y="200" type="line"/>
    </contour>
    <contour>
      <point x="63" y="474" type="line"/>
      <point x="10" y="423" type="line"/>
      <point x="10" y="325" type="line"/>
      <point x="63" y="274" type="line"/>
      <point x="212" y="274" type="line"/>
      <point x="264" y="325" type="line"/>
      <point x="264" y="423" type="line"/>
      <point x="212" y="474" type="line"/>
    </contour>
  </outline>
</glyph>
<glyph name="semicolon" format="1">
  <unicode hex="003B"/>
  <advance width="274"/>
  <outline>
    <contour>
      <point x="63" y="200" type="line"/>
      <point x="10" y="149" type="line"/>
      <point x="10" y="51" type="line"/>
      <point x="63" y="0" type="line"/>
      <point x="98" y="0" type="line"/>
      <point x="98" y="-117" type="line"/>
      <point x="108" y="-127" type="line"/>
      <point x="202" y="-127" type="line"/>
      <point x="264" y="51" type="line"/>
      <point x="264" y="149" type="line"/>
      <point x="212" y="200" type="line"/>
    </contour>
    <contour>
      <point x="63" y="474" type="line"/>
      <point x="10" y="423" type="line"/>
      <point x="10" y="325" type="line"/>
      <point x="63" y="274" type="line"/>
      <point x="212" y="274" type="line"/>
      <point x="264" y="325" type="line"/>
      <point x="264" y="423" type="line"/>
      <point x="212" y="474" type="line"/>
    </contour>
  </outline>
</glyph>
<glyph name="less" format="1">
  <unicode hex="003C"/>
  <advance width="596"/>
  <outline>
    <contour>
      <point x="570" y="37" type="line"/>
      <point x="580" y="47" type="line"/>
      <point x="580" y="185" type="line"/>
      <point x="262" y="277" type="line"/>
      <point x="580" y="369" type="line"/>
      <point x="580" y="501" type="line"/>
      <point x="570" y="511" type="line"/>
      <point x="391" y="511" type="line"/>
      <point x="15" y="376" type="line"/>
      <point x="15" y="173" type="line"/>
      <point x="391" y="37" type="line"/>
    </contour>
  </outline>
</glyph>
<glyph name="equal" format="1">
  <unicode hex="003D"/>
  <advance width="596"/>
  <outline>
    <contour>
      <point x="25" y="252" type="line"/>
      <point x="15" y="242" type="line"/>
      <point x="15" y="102" type="line"/>
      <point x="25" y="92" type="line"/>
      <point x="570" y="92" type="line"/>
      <point x="580" y="102" type="line"/>
      <point x="580" y="242" type="line"/>
      <point x="570" y="252" type="line"/>
    </contour>
    <contour>
      <point x="25" y="457" type="line"/>
      <point x="15" y="447" type="line"/>
      <point x="15" y="307" type="line"/>
      <point x="25" y="297" type="line"/>
      <point x="570" y="297" type="line"/>
      <point x="580" y="307" type="line"/>
      <point x="580" y="447" type="line"/>
      <point x="570" y="457" type="line"/>
    </contour>
  </outline>
</glyph>
<glyph name="greater" format="1">
  <unicode hex="003E"/>
  <advance width="596"/>
  <outline>
    <contour>
      <point x="205" y="37" type="line"/>
      <point x="581" y="173" type="line"/>
      <point x="581" y="376" type="line"/>
      <point x="205" y="511" type="line"/>
      <point x="26" y="511" type="line"/>
      <point x="16" y="501" type="line"/>
      <point x="16" y="369" type="line"/>
      <point x="334" y="277" type="line"/>
      <point x="16" y="185" type="line"/>
      <point x="16" y="47" type="line"/>
      <point x="26" y="37" type="line"/>
    </contour>
  </outline>
</glyph>
<glyph name="question" format="1">
  <unicode hex="003F"/>
  <advance width="488"/>
  <outline>
    <contour>
      <point x="478" y="337" type="line"/>
      <point x="478" y="513" type="line"/>
      <point x="354" y="611" type="line"/>
      <point x="20" y="611" type="line"/>
      <point x="10" y="601" type="line"/>
      <point x="10" y="440" type="line"/>
      <point x="20" y="430" type="line"/>
      <point x="183" y="430" type="line"/>
      <point x="183" y="385" type="line"/>
      <point x="93" y="321" type="line"/>
      <point x="93" y="245" type="line"/>
      <point x="103" y="235" type="line"/>
      <point x="352" y="235" type="line"/>
    </contour>
    <contour>
      <point x="146" y="200" type="line"/>
      <point x="93" y="149" type="line"/>
      <point x="93" y="51" type="line"/>
      <point x="146" y="0" type="line"/>
      <point x="295" y="0" type="line"/>
      <point x="347" y="51" type="line"/>
      <point x="347" y="149" type="line"/>
      <point x="295" y="200" type="line"/>
    </contour>
  </outline>
</glyph>
<glyph name="at" format="1">
  <unicode hex="0040"/>
  <advance width="787"/>
  <outline>
    <contour>
      <point x="375" y="347" type="line"/>
      <point x="375" y="177" type="line"/>
      <point x="426" y="177" type="line"/>
      <point x="426" y="347" type="line"/>
    </contour>
    <contour>
      <point x="209" y="573" type="line"/>
      <point x="20" y="417" type="line"/>
      <point x="20" y="94" type="line"/>
      <point x="209" y="-62" type="line"/>
      <point x="757" y="-62" type="line"/>
      <point x="767" y="-52" type="line"/>
      <point x="767" y="67" type="line"/>
      <point x="757" y="77" type="line"/>
      <point x="458" y="77" type="line"/>
      <point x="428" y="146" type="line"/>
      <point x="359" y="77" type="line"/>
      <point x="227" y="77" type="line"/>
      <point x="129" y="167" type="line"/>
      <point x="129" y="357" type="line"/>
      <point x="227" y="448" type="line"/>
      <point x="359" y="448" type="line"/>
      <point x="428" y="378" type="line"/>
      <point x="458" y="448" type="line"/>
      <point x="655" y="448" type="line"/>
      <point x="665" y="438" type="line"/>
      <point x="665" y="147" type="line"/>
      <point x="675" y="137" type="line"/>
      <point x="757" y="137" type="line"/>
      <point x="767" y="147" type="line"/>
      <point x="767" y="417" type="line"/>
      <point x="606" y="573" type="line"/>
    </contour>
  </outline>
</glyph>
<glyph name="A" format="1">
  <unicode hex="0041"/>
  <advance width="735"/>
  <outline>
    <contour>
      <point x="175" y="611" type="line"/>
      <point x="20" y="299" type="line"/>
      <point x="20" y="10" type="line"/>
      <point x="30" y="0" type="line"/>
      <point x="325" y="0" type="line"/>
      <point x="335" y="10" type="line"/>
      <point x="335" y="132" type="line"/>
      <point x="400" y="132" type="line"/>
      <point x="400" y="10" type="line"/>
      <point x="410" y="0" type="line"/>
      <point x="705" y="0" type="line"/>
      <point x="715" y="10" type="line"/>
      <point x="715" y="299" type="line"/>
      <point x="560" y="611" type="line"/>
    </contour>
    <contour>
      <point x="335" y="486" type="line"/>
      <point x="400" y="486" type="line"/>
      <point x="400" y="283" type="line"/>
      <point x="335" y="283" type="line"/>
    </contour>
    <contour>
      <point x="266" y="755" type="move" name="top.cap"/>
    </contour>
  </outline>
</glyph>
<glyph name="B" format="1">
  <unicode hex="0042"/>
  <advance width="735"/>
  <outline>
    <contour>
      <point x="40" y="611" type="line"/>
      <point x="30" y="601" type="line"/>
      <point x="30" y="10" type="line"/>
      <point x="40" y="0" type="line"/>
      <point x="600" y="0" type="line"/>
      <point x="715" y="110" type="line"/>
      <point x="715" y="248" type="line"/>
      <point x="646" y="316" type="line"/>
      <point x="715" y="384" type="line"/>
      <point x="715" y="501" type="line"/>
      <point x="600" y="611" type="line"/>
    </contour>
    <contour>
      <point x="335" y="259" type="line"/>
      <point x="400" y="259" type="line"/>
      <point x="400" y="94" type="line"/>
      <point x="335" y="94" type="line"/>
    </contour>
    <contour>
      <point x="335" y="516" type="line"/>
      <point x="400" y="516" type="line"/>
      <point x="400" y="374" type="line"/>
      <point x="335" y="374" type="line"/>
    </contour>
  </outline>
</glyph>
<glyph name="C" format="1">
  <unicode hex="0043"/>
  <advance width="450"/>
  <outline>
    <contour>
      <point x="175" y="611" type="line"/>
      <point x="20" y="461" type="line"/>
      <point x="20" y="150" type="line"/>
      <point x="175" y="0" type="line"/>
      <point x="430" y="0" type="line"/>
      <point x="440" y="10" type="line"/>
      <point x="440" y="131" type="line"/>
      <point x="430" y="141" type="line"/>
      <point x="355" y="141" type="line"/>
      <point x="355" y="470" type="line"/>
      <point x="430" y="470" type="line"/>
      <point x="440" y="480" type="line"/>
      <point x="440" y="601" type="line"/>
      <point x="430" y="611" type="line"/>
    </contour>
    <contour>
      <point x="288" y="755" type="move" name="top.cap"/>
    </contour>
  </outline>
</glyph>
<glyph name="D" format="1">
  <unicode hex="0044"/>
  <advance width="735"/>
  <outline>
    <contour>
      <point x="40" y="611" type="line"/>
      <point x="30" y="601" type="line"/>
      <point x="30" y="10" type="line"/>
      <point x="40" y="0" type="line"/>
      <point x="560" y="0" type="line"/>
      <point x="715" y="150" type="line"/>
      <point x="715" y="461" type="line"/>
      <point x="560" y="611" type="line"/>
    </contour>
    <contour>
      <point x="400" y="516" type="line"/>
      <point x="400" y="95" type="line"/>
      <point x="335" y="95" type="line"/>
      <point x="335" y="516" type="line"/>
    </contour>
    <contour>
      <point x="256" y="755" type="move" name="top.cap"/>
    </contour>
  </outline>
</glyph>
<glyph name="E" format="1">
  <unicode hex="0045"/>
  <advance width="470"/>
  <outline>
    <contour>
      <point x="40" y="611" type="line"/>
      <point x="30" y="601" type="line"/>
      <point x="30" y="10" type="line"/>
      <point x="40" y="0" type="line"/>
      <point x="440" y="0" type="line"/>
      <point x="450" y="10" type="line"/>
      <point x="450" y="141" type="line"/>
      <point x="440" y="151" type="line"/>
      <point x="335" y="151" type="line"/>
      <point x="335" y="237" type="line"/>
      <point x="430" y="237" type="line"/>
      <point x="440" y="247" type="line"/>
      <point x="440" y="378" type="line"/>
      <point x="430" y="388" type="line"/>
      <point x="335" y="388" type="line"/>
      <point x="335" y="460" type="line"/>
      <point x="440" y="460" type="line"/>
      <point x="450" y="470" type="line"/>
      <point x="450" y="601" type="line"/>
      <point x="440" y="611" type="line"/>
    </contour>
    <contour>
      <point x="258" y="755" type="move" name="top.cap"/>
    </contour>
  </outline>
</glyph>
<glyph name="F" format="1">
  <unicode hex="0046"/>
  <advance width="455"/>
  <outline>
    <contour>
      <point x="40" y="611" type="line"/>
      <point x="30" y="601" type="line"/>
      <point x="30" y="10" type="line"/>
      <point x="40" y="0" type="line"/>
      <point x="325" y="0" type="line"/>
      <point x="335" y="10" type="line"/>
      <point x="335" y="182" type="line"/>
      <point x="430" y="182" type="line"/>
      <point x="440" y="192" type="line"/>
      <point x="440" y="323" type="line"/>
      <point x="430" y="333" type="line"/>
      <point x="335" y="333" type="line"/>
      <point x="335" y="460" type="line"/>
      <point x="440" y="460" type="line"/>
      <point x="450" y="470" type="line"/>
      <point x="450" y="601" type="line"/>
      <point x="440" y="611" type="line"/>
    </contour>
  </outline>
</glyph>
<glyph name="G" format="1">
  <unicode hex="0047"/>
  <advance width="730"/>
  <outline>
    <contour>
      <point x="410" y="393" type="line"/>
      <point x="400" y="383" type="line"/>
      <point x="400" y="141" type="line"/>
      <point x="335" y="141" type="line"/>
      <point x="335" y="470" type="line"/>
      <point x="695" y="470" type="line"/>
      <point x="705" y="480" type="line"/>
      <point x="705" y="601" type="line"/>
      <point x="695" y="611" type="line"/>
      <point x="175" y="611" type="line"/>
      <point x="20" y="461" type="line"/>
      <point x="20" y="150" type="line"/>
      <point x="175" y="0" type="line"/>
      <point x="400" y="0" type="line"/>
      <point x="400" y="-118" type="line"/>
      <point x="410" y="-128" type="line"/>
      <point x="695" y="-128" type="line"/>
      <point x="705" y="-118" type="line"/>
      <point x="705" y="382" type="line"/>
      <point x="695" y="393" type="line"/>
    </contour>
    <contour>
      <point x="315" y="755" type="move" name="top.cap"/>
    </contour>
  </outline>
</glyph>
<glyph name="H" format="1">
  <unicode hex="0048"/>
  <advance width="735"/>
  <outline>
    <contour>
      <point x="410" y="611" type="line"/>
      <point x="400" y="601" type="line"/>
      <point x="400" y="393" type="line"/>
      <point x="335" y="393" type="line"/>
      <point x="335" y="600" type="line"/>
      <point x="325" y="611" type="line"/>
      <point x="40" y="611" type="line"/>
      <point x="30" y="601" type="line"/>
      <point x="30" y="10" type="line"/>
      <point x="40" y="0" type="line"/>
      <point x="325" y="0" type="line"/>
      <point x="335" y="10" type="line"/>
      <point x="335" y="242" type="line"/>
      <point x="400" y="242" type="line"/>
      <point x="400" y="10" type="line"/>
      <point x="410" y="0" type="line"/>
      <point x="695" y="0" type="line"/>
      <point x="705" y="10" type="line"/>
      <point x="705" y="600" type="line"/>
      <point x="695" y="611" type="line"/>
    </contour>
    <contour>
      <point x="305" y="755" type="move" name="top.cap"/>
    </contour>
  </outline>
</glyph>
<glyph name="I" format="1">
  <unicode hex="0049"/>
  <advance width="375"/>
  <outline>
    <contour>
      <point x="40" y="611" type="line"/>
      <point x="30" y="601" type="line"/>
      <point x="30" y="10" type="line"/>
      <point x="40" y="0" type="line"/>
      <point x="335" y="0" type="line"/>
      <point x="345" y="10" type="line"/>
      <point x="345" y="600" type="line"/>
      <point x="335" y="611" type="line"/>
    </contour>
    <contour>
      <point x="105" y="755" type="move" name="top.cap"/>
    </contour>
  </outline>
</glyph>
<glyph name="J" format="1">
  <unicode hex="004A"/>
  <advance width="375"/>
  <outline>
    <contour>
      <point x="40" y="611" type="line"/>
      <point x="30" y="601" type="line"/>
      <point x="30" y="0" type="line"/>
      <point x="-20" y="-117" type="line"/>
      <point x="-10" y="-127" type="line"/>
      <point x="285" y="-127" type="line"/>
      <point x="295" y="-117" type="line"/>
      <point x="345" y="0" type="line"/>
      <point x="345" y="600" type="line"/>
      <point x="335" y="611" type="line"/>
    </contour>
    <contour>
      <point x="131" y="755" type="move" name="top.cap"/>
    </contour>
  </outline>
</glyph>
<glyph name="K" format="1">
  <unicode hex="004B"/>
  <advance width="725"/>
  <outline>
    <contour>
      <point x="410" y="611" type="line"/>
      <point x="400" y="601" type="line"/>
      <point x="400" y="393" type="line"/>
      <point x="335" y="393" type="line"/>
      <point x="335" y="600" type="line"/>
      <point x="325" y="611" type="line"/>
      <point x="40" y="611" type="line"/>
      <point x="30" y="601" type="line"/>
      <point x="30" y="10" type="line"/>
      <point x="40" y="0" type="line"/>
      <point x="325" y="0" type="line"/>
      <point x="335" y="10" type="line"/>
      <point x="335" y="242" type="line"/>
      <point x="388" y="242" type="line"/>
      <point x="430" y="-116" type="line"/>
      <point x="440" y="-126" type="line"/>
      <point x="695" y="-126" type="line"/>
      <point x="705" y="-116" type="line"/>
      <point x="705" y="216" type="line"/>
      <point x="612" y="320" type="line"/>
      <point x="705" y="423" type="line"/>
      <point x="705" y="601" type="line"/>
      <point x="695" y="611" type="line"/>
    </contour>
    <contour>
      <point x="271" y="755" type="move" name="top.cap"/>
    </contour>
  </outline>
</glyph>
<glyph name="L" format="1">
  <unicode hex="004C"/>
  <advance width="463"/>
  <outline>
    <contour>
      <point x="40" y="611" type="line"/>
      <point x="30" y="601" type="line"/>
      <point x="30" y="10" type="line"/>
      <point x="40" y="0" type="line"/>
      <point x="450" y="0" type="line"/>
      <point x="460" y="10" type="line"/>
      <point x="460" y="141" type="line"/>
      <point x="450" y="151" type="line"/>
      <point x="345" y="151" type="line"/>
      <point x="345" y="600" type="line"/>
      <point x="335" y="611" type="line"/>
    </contour>
    <contour>
      <point x="75" y="755" type="move" name="top.cap"/>
    </contour>
  </outline>
</glyph>
<glyph name="M" format="1">
  <unicode hex="004D"/>
  <advance width="947"/>
  <outline>
    <contour>
      <point x="612" y="611" type="line"/>
      <point x="477" y="365" type="line"/>
      <point x="335" y="611" type="line"/>
      <point x="40" y="611" type="line"/>
      <point x="30" y="601" type="line"/>
      <point x="30" y="10" type="line"/>
      <point x="40" y="0" type="line"/>
      <point x="305" y="0" type="line"/>
      <point x="315" y="10" type="line"/>
      <point x="315" y="194" type="line"/>
      <point x="397" y="0" type="line"/>
      <point x="550" y="0" type="line"/>
      <point x="632" y="194" type="line"/>
      <point x="632" y="10" type="line"/>
      <point x="642" y="0" type="line"/>
      <point x="907" y="0" type="line"/>
      <point x="917" y="10" type="line"/>
      <point x="917" y="600" type="line"/>
      <point x="907" y="611" type="line"/>
    </contour>
  </outline>
</glyph>
<glyph name="O" format="1">
  <unicode hex="004F"/>
  <advance width="735"/>
  <outline>
    <contour>
      <point x="175" y="611" type="line"/>
      <point x="20" y="461" type="line"/>
      <point x="20" y="150" type="line"/>
      <point x="175" y="0" type="line"/>
      <point x="560" y="0" type="line"/>
      <point x="715" y="150" type="line"/>
      <point x="715" y="461" type="line"/>
      <point x="560" y="611" type="line"/>
    </contour>
    <contour>
      <point x="400" y="516" type="line"/>
      <point x="400" y="95" type="line"/>
      <point x="335" y="95" type="line"/>
      <point x="335" y="516" type="line"/>
    </contour>
    <contour>
      <point x="301" y="755" type="move" name="top.cap"/>
    </contour>
  </outline>
</glyph>
<glyph name="P" format="1">
  <unicode hex="0050"/>
  <advance width="725"/>
  <outline>
    <contour>
      <point x="40" y="611" type="line"/>
      <point x="30" y="601" type="line"/>
      <point x="30" y="10" type="line"/>
      <point x="40" y="0" type="line"/>
      <point x="325" y="0" type="line"/>
      <point x="335" y="10" type="line"/>
      <point x="335" y="147" type="line"/>
      <point x="580" y="147" type="line"/>
      <point x="715" y="277" type="line"/>
      <point x="715" y="491" type="line"/>
      <point x="590" y="611" type="line"/>
    </contour>
    <contour>
      <point x="335" y="516" type="line"/>
      <point x="400" y="516" type="line"/>
      <point x="400" y="252" type="line"/>
      <point x="335" y="252" type="line"/>
    </contour>
  </outline>
</glyph>
<glyph name="Q" format="1">
  <unicode hex="0051"/>
  <advance width="735"/>
  <outline>
    <contour>
      <point x="457" y="-127" type="line"/>
      <point x="687" y="-127" type="line"/>
      <point x="687" y="-97" type="line"/>
      <point x="560" y="0" type="line"/>
      <point x="715" y="150" type="line"/>
      <point x="715" y="461" type="line"/>
      <point x="560" y="611" type="line"/>
      <point x="175" y="611" type="line"/>
      <point x="20" y="461" type="line"/>
      <point x="20" y="150" type="line"/>
      <point x="175" y="0" type="line"/>
      <point x="330" y="0" type="line"/>
    </contour>
    <contour>
      <point x="400" y="516" type="line"/>
      <point x="400" y="95" type="line"/>
      <point x="335" y="95" type="line"/>
      <point x="335" y="516" type="line"/>
    </contour>
  </outline>
</glyph>
<glyph name="R" format="1">
  <unicode hex="0052"/>
  <advance width="735"/>
  <outline>
    <contour>
      <point x="468" y="0" type="line"/>
      <point x="705" y="0" type="line"/>
      <point x="715" y="10" type="line"/>
      <point x="715" y="212" type="line"/>
      <point x="636" y="222" type="line"/>
      <point x="715" y="300" type="line"/>
      <point x="715" y="491" type="line"/>
      <point x="590" y="611" type="line"/>
      <point x="40" y="611" type="line"/>
      <point x="30" y="601" type="line"/>
      <point x="30" y="10" type="line"/>
      <point x="40" y="0" type="line"/>
      <point x="325" y="0" type="line"/>
      <point x="335" y="10" type="line"/>
      <point x="335" y="147" type="line"/>
    </contour>
    <contour>
      <point x="335" y="516" type="line"/>
      <point x="400" y="516" type="line"/>
      <point x="400" y="242" type="line"/>
      <point x="335" y="242" type="line"/>
    </contour>
    <contour>
      <point x="247" y="755" type="move" name="top.cap"/>
    </contour>
  </outline>
</glyph>
<glyph name="S" format="1">
  <unicode hex="0053"/>
  <advance width="735"/>
  <outline>
    <contour>
      <point x="115" y="611" type="line"/>
      <point x="20" y="522" type="line"/>
      <point x="20" y="296" type="line"/>
      <point x="116" y="206" type="line"/>
      <point x="400" y="206" type="line"/>
      <point x="400" y="161" type="line"/>
      <point x="30" y="161" type="line"/>
      <point x="20" y="151" type="line"/>
      <point x="20" y="10" type="line"/>
      <point x="30" y="0" type="line"/>
      <point x="620" y="0" type="line"/>
      <point x="715" y="90" type="line"/>
      <point x="715" y="266" type="line"/>
      <point x="620" y="356" type="line"/>
      <point x="335" y="356" type="line"/>
      <point x="335" y="516" type="line"/>
      <point x="400" y="516" type="line"/>
      <point x="400" y="406" type="line"/>
      <point x="410" y="396" type="line" name="hr01"/>
      <point x="695" y="396" type="line"/>
      <point x="705" y="406" type="line"/>
      <point x="705" y="571" type="line"/>
      <point x="665" y="611" type="line"/>
    </contour>
    <contour>
      <point x="236" y="755" type="move" name="top.cap"/>
    </contour>
  </outline>
</glyph>
<glyph name="T" format="1">
  <unicode hex="0054"/>
  <advance width="555"/>
  <outline>
    <contour>
      <point x="15" y="611" type="line"/>
      <point x="5" y="601" type="line"/>
      <point x="5" y="460" type="line"/>
      <point x="15" y="450" type="line"/>
      <point x="120" y="450" type="line"/>
      <point x="120" y="10" type="line"/>
      <point x="130" y="0" type="line"/>
      <point x="425" y="0" type="line"/>
      <point x="435" y="10" type="line"/>
      <point x="435" y="450" type="line"/>
      <point x="540" y="450" type="line"/>
      <point x="550" y="460" type="line"/>
      <point x="550" y="601" type="line"/>
      <point x="540" y="611" type="line"/>
    </contour>
    <contour>
      <point x="308" y="755" type="move" name="top.cap"/>
    </contour>
  </outline>
</glyph>
<glyph name="U" format="1">
  <unicode hex="0055"/>
  <advance width="725"/>
  <outline>
    <contour>
      <point x="35" y="611" type="line"/>
      <point x="25" y="601" type="line"/>
      <point x="25" y="150" type="line"/>
      <point x="180" y="0" type="line"/>
      <point x="545" y="0" type="line"/>
      <point x="700" y="150" type="line"/>
      <point x="700" y="600" type="line"/>
      <point x="690" y="611" type="line"/>
      <point x="405" y="611" type="line"/>
      <point x="395" y="601" type="line"/>
      <point x="395" y="95" type="line"/>
      <point x="330" y="95" type="line"/>
      <point x="330" y="600" type="line"/>
      <point x="320" y="611" type="line"/>
    </contour>
    <contour>
      <point x="291" y="755" type="move" name="top.cap"/>
    </contour>
  </outline>
</glyph>
<glyph name="V" format="1">
  <unicode hex="0056"/>
  <advance width="731"/>
  <outline>
    <contour>
      <point x="30" y="611" type="line"/>
      <point x="20" y="601" type="line"/>
      <point x="20" y="312" type="line"/>
      <point x="175" y="0" type="line"/>
      <point x="556" y="0" type="line"/>
      <point x="711" y="312" type="line"/>
      <point x="711" y="601" type="line"/>
      <point x="701" y="611" type="line"/>
      <point x="406" y="611" type="line"/>
      <point x="396" y="601" type="line"/>
      <point x="396" y="125" type="line"/>
      <point x="335" y="125" type="line"/>
      <point x="335" y="601" type="line"/>
      <point x="325" y="611" type="line"/>
    </contour>
  </outline>
</glyph>
<glyph name="W" format="1">
  <unicode hex="0057"/>
  <advance width="1097"/>
  <outline>
    <contour>
      <point x="30" y="611" type="line"/>
      <point x="20" y="601" type="line"/>
      <point x="20" y="150" type="line"/>
      <point x="175" y="0" type="line"/>
      <point x="482" y="0" type="line"/>
      <point x="548" y="116" type="line"/>
      <point x="615" y="0" type="line"/>
      <point x="922" y="0" type="line"/>
      <point x="1077" y="150" type="line"/>
      <point x="1077" y="600" type="line"/>
      <point x="1067" y="611" type="line"/>
      <point x="406" y="611" type="line"/>
      <point x="396" y="601" type="line"/>
      <point x="396" y="470" type="line"/>
      <point x="406" y="460" type="line"/>
      <point x="762" y="460" type="line"/>
      <point x="762" y="105" type="line"/>
      <point x="701" y="105" type="line"/>
      <point x="701" y="404" type="line"/>
      <point x="691" y="415" type="line"/>
      <point x="406" y="415" type="line"/>
      <point x="396" y="405" type="line"/>
      <point x="396" y="105" type="line"/>
      <point x="335" y="105" type="line"/>
      <point x="335" y="600" type="line"/>
      <point x="325" y="611" type="line"/>
    </contour>
    <contour>
      <point x="381" y="755" type="move" name="top.cap"/>
    </contour>
  </outline>
</glyph>
<glyph name="X" format="1">
  <unicode hex="0058"/>
  <advance width="734"/>
  <outline>
    <contour>
      <point x="20" y="212" type="line"/>
      <point x="20" y="10" type="line"/>
      <point x="30" y="0" type="line"/>
      <point x="324" y="0" type="line"/>
      <point x="334" y="10" type="line"/>
      <point x="334" y="242" type="line"/>
      <point x="399" y="242" type="line"/>
      <point x="399" y="10" type="line"/>
      <point x="409" y="0" type="line"/>
      <point x="704" y="0" type="line"/>
      <point x="714" y="10" type="line"/>
      <point x="714" y="212" type="line"/>
      <point x="595" y="320" type="line"/>
      <point x="714" y="428" type="line"/>
      <point x="714" y="601" type="line"/>
      <point x="704" y="611" type="line"/>
      <point x="409" y="611" type="line"/>
      <point x="399" y="601" type="line"/>
      <point x="399" y="398" type="line"/>
      <point x="334" y="398" type="line"/>
      <point x="334" y="601" type="line"/>
      <point x="324" y="611" type="line"/>
      <point x="30" y="611" type="line"/>
      <point x="20" y="601" type="line"/>
      <point x="20" y="428" type="line"/>
      <point x="138" y="320" type="line"/>
    </contour>
  </outline>
</glyph>
<glyph name="Y" format="1">
  <unicode hex="0059"/>
  <advance width="715"/>
  <outline>
    <contour>
      <point x="25" y="611" type="line"/>
      <point x="15" y="601" type="line"/>
      <point x="15" y="347" type="line"/>
      <point x="141" y="127" type="line"/>
      <point x="185" y="127" type="line"/>
      <point x="185" y="10" type="line"/>
      <point x="195" y="0" type="line"/>
      <point x="520" y="0" type="line"/>
      <point x="530" y="10" type="line"/>
      <point x="530" y="127" type="line"/>
      <point x="574" y="127" type="line"/>
      <point x="700" y="347" type="line"/>
      <point x="700" y="601" type="line"/>
      <point x="690" y="611" type="line"/>
      <point x="398" y="611" type="line"/>
      <point x="388" y="601" type="line"/>
      <point x="388" y="232" type="line"/>
      <point x="327" y="232" type="line"/>
      <point x="327" y="601" type="line"/>
      <point x="317" y="611" type="line"/>
    </contour>
    <contour>
      <point x="246" y="755" type="move" name="top.cap"/>
    </contour>
  </outline>
</glyph>
<glyph name="Z" format="1">
  <unicode hex="005A"/>
  <advance width="510"/>
  <outline>
    <contour>
      <point x="30" y="611" type="line"/>
      <point x="20" y="601" type="line"/>
      <point x="20" y="440" type="line"/>
      <point x="30" y="430" type="line"/>
      <point x="176" y="430" type="line"/>
      <point x="20" y="168" type="line"/>
      <point x="20" y="10" type="line"/>
      <point x="30" y="0" type="line"/>
      <point x="480" y="0" type="line"/>
      <point x="490" y="10" type="line"/>
      <point x="490" y="171" type="line"/>
      <point x="480" y="181" type="line"/>
      <point x="334" y="181" type="line"/>
      <point x="490" y="443" type="line"/>
      <point x="490" y="601" type="line"/>
      <point x="480" y="611" type="line"/>
    </contour>
    <contour>
      <point x="244" y="755" type="move" name="top.cap"/>
    </contour>
  </outline>
</glyph>
<glyph name="backslash" format="1">
  <unicode hex="005C"/>
  <advance width="339"/>
  <outline>
    <contour>
      <point x="5" y="651" type="line"/>
      <point x="-5" y="641" type="line"/>
      <point x="-5" y="556" type="line"/>
      <point x="147" y="-157" type="line"/>
      <point x="157" y="-167" type="line"/>
      <point x="334" y="-167" type="line"/>
      <point x="344" y="-157" type="line"/>
      <point x="344" y="-72" type="line"/>
      <point x="192" y="641" type="line"/>
      <point x="182" y="651" type="line"/>
    </contour>
  </outline>
</glyph>
<glyph name="underscore" format="1">
  <unicode hex="005F"/>
  <advance width="596"/>
  <outline>
    <contour>
      <point x="25" y="52" type="line"/>
      <point x="15" y="42" type="line"/>
      <point x="15" y="-118" type="line"/>
      <point x="25" y="-128" type="line"/>
      <point x="570" y="-128" type="line"/>
      <point x="580" y="-118" type="line"/>
      <point x="580" y="42" type="line"/>
      <point x="570" y="52" type="line"/>
    </contour>
  </outline>
</glyph>
<glyph name="a" format="1">
  <unicode hex="0061"/>
  <advance width="730"/>
  <outline>
    <contour>
      <point x="402" y="385" type="line"/>
      <point x="314" y="474" type="line"/>
      <point x="145" y="474" type="line"/>
      <point x="20" y="354" type="line"/>
      <point x="20" y="120" type="line"/>
      <point x="145" y="0" type="line"/>
      <point x="314" y="0" type="line"/>
      <point x="402" y="88" type="line"/>
      <point x="441" y="0" type="line"/>
      <point x="695" y="0" type="line"/>
      <point x="705" y="10" type="line"/>
      <point x="705" y="464" type="line"/>
      <point x="695" y="474" type="line"/>
      <point x="441" y="474" type="line"/>
    </contour>
    <contour>
      <point x="335" y="346" type="line"/>
      <point x="400" y="346" type="line"/>
      <point x="400" y="128" type="line"/>
      <point x="335" y="128" type="line"/>
    </contour>
    <contour>
      <point x="223" y="755" type="move" name="top"/>
    </contour>
  </outline>
</glyph>
<glyph name="c" format="1">
  <unicode hex="0063"/>
  <advance width="707"/>
  <outline>
    <contour>
      <point x="145" y="474" type="line"/>
      <point x="20" y="354" type="line"/>
      <point x="20" y="120" type="line"/>
      <point x="145" y="0" type="line"/>
      <point x="675" y="0" type="line"/>
      <point x="685" y="10" type="line"/>
      <point x="685" y="141" type="line"/>
      <point x="675" y="151" type="line"/>
      <point x="335" y="151" type="line"/>
      <point x="335" y="384" type="line"/>
      <point x="400" y="384" type="line"/>
      <point x="400" y="206" type="line"/>
      <point x="410" y="196" type="line"/>
      <point x="675" y="196" type="line"/>
      <point x="685" y="206" type="line"/>
      <point x="685" y="424" type="line"/>
      <point x="635" y="474" type="line"/>
    </contour>
    <contour>
      <point x="239" y="755" type="move" name="top"/>
    </contour>
  </outline>
</glyph>
<glyph name="d" format="1">
  <unicode hex="0064"/>
  <advance width="730"/>
  <outline>
    <contour>
      <point x="150" y="474" type="line"/>
      <point x="25" y="354" type="line"/>
      <point x="25" y="120" type="line"/>
      <point x="150" y="0" type="line"/>
      <point x="319" y="0" type="line"/>
      <point x="407" y="88" type="line"/>
      <point x="446" y="0" type="line"/>
      <point x="700" y="0" type="line"/>
      <point x="710" y="10" type="line"/>
      <point x="710" y="601" type="line"/>
      <point x="700" y="611" type="line"/>
      <point x="415" y="611" type="line"/>
      <point x="405" y="601" type="line"/>
      <point x="405" y="388" type="line"/>
      <point x="319" y="474" type="line"/>
    </contour>
    <contour>
      <point x="340" y="346" type="line"/>
      <point x="405" y="346" type="line"/>
      <point x="405" y="128" type="line"/>
      <point x="340" y="128" type="line"/>
    </contour>
    <contour>
      <point x="495" y="755" type="move" name="top"/>
    </contour>
  </outline>
</glyph>
<glyph name="e" format="1">
  <unicode hex="0065"/>
  <advance width="725"/>
  <outline>
    <contour>
      <point x="145" y="0" type="line"/>
      <point x="695" y="0" type="line"/>
      <point x="705" y="10" type="line"/>
      <point x="705" y="141" type="line"/>
      <point x="695" y="151" type="line"/>
      <point x="335" y="151" type="line"/>
      <point x="335" y="196" type="line"/>
      <point x="695" y="196" type="line"/>
      <point x="705" y="206" type="line"/>
      <point x="705" y="354" type="line"/>
      <point x="580" y="474" type="line"/>
      <point x="145" y="474" type="line"/>
      <point x="20" y="354" type="line"/>
      <point x="20" y="120" type="line"/>
    </contour>
    <contour>
      <point x="335" y="384" type="line"/>
      <point x="400" y="384" type="line"/>
      <point x="400" y="256" type="line"/>
      <point x="335" y="256" type="line"/>
    </contour>
    <contour>
      <point x="242" y="755" type="move" name="top"/>
    </contour>
  </outline>
</glyph>
<glyph name="f" format="1">
  <unicode hex="0066"/>
  <advance width="455"/>
  <outline>
    <contour>
      <point x="15" y="386" type="line"/>
      <point x="5" y="376" type="line"/>
      <point x="5" y="245" type="line"/>
      <point x="15" y="235" type="line"/>
      <point x="60" y="235" type="line"/>
      <point x="60" y="-117" type="line"/>
      <point x="70" y="-127" type="line"/>
      <point x="365" y="-127" type="line"/>
      <point x="375" y="-117" type="line"/>
      <point x="375" y="235" type="line"/>
      <point x="440" y="235" type="line"/>
      <point x="450" y="245" type="line"/>
      <point x="450" y="376" type="line"/>
      <point x="440" y="386" type="line"/>
      <point x="310" y="386" type="line"/>
      <point x="310" y="431" type="line"/>
      <point x="440" y="431" type="line"/>
      <point x="450" y="441" type="line"/>
      <point x="450" y="601" type="line"/>
      <point x="440" y="611" type="line"/>
      <point x="185" y="611" type="line"/>
      <point x="60" y="386" type="line"/>
    </contour>
  </outline>
</glyph>
<glyph name="g" format="1">
  <unicode hex="0067"/>
  <advance width="710"/>
  <outline>
    <contour>
      <point x="122" y="474" type="line"/>
      <point x="25" y="381" type="line"/>
      <point x="25" y="222" type="line"/>
      <point x="110" y="141" type="line"/>
      <point x="455" y="141" type="line"/>
      <point x="455" y="101" type="line"/>
      <point x="110" y="101" type="line"/>
      <point x="15" y="30" type="line"/>
      <point x="15" y="-56" type="line"/>
      <point x="110" y="-127" type="line"/>
      <point x="593" y="-127" type="line"/>
      <point x="690" y="-34" type="line"/>
      <point x="690" y="227" type="line"/>
      <point x="502" y="283" type="line"/>
      <point x="502" y="313" type="line"/>
      <point x="680" y="303" type="line"/>
      <point x="690" y="313" type="line"/>
      <point x="690" y="464" type="line"/>
      <point x="680" y="474" type="line"/>
    </contour>
    <contour>
      <point x="306" y="389" type="line"/>
      <point x="371" y="389" type="line"/>
      <point x="371" y="236" type="line"/>
      <point x="306" y="236" type="line"/>
    </contour>
    <contour>
      <point x="246" y="21" type="line"/>
      <point x="455" y="21" type="line"/>
      <point x="455" y="-34" type="line"/>
      <point x="246" y="-34" type="line"/>
    </contour>
    <contour>
      <point x="221" y="755" type="move" name="top"/>
    </contour>
  </outline>
</glyph>
<glyph name="h" format="1">
  <unicode hex="0068"/>
  <advance width="732"/>
  <outline>
    <contour>
      <point x="35" y="611" type="line"/>
      <point x="25" y="601" type="line"/>
      <point x="25" y="10" type="line"/>
      <point x="35" y="0" type="line"/>
      <point x="320" y="0" type="line"/>
      <point x="330" y="10" type="line"/>
      <point x="330" y="326" type="line"/>
      <point x="395" y="326" type="line"/>
      <point x="395" y="10" type="line"/>
      <point x="405" y="0" type="line"/>
      <point x="700" y="0" type="line"/>
      <point x="710" y="10" type="line"/>
      <point x="710" y="354" type="line"/>
      <point x="585" y="474" type="line"/>
      <point x="416" y="474" type="line"/>
      <point x="330" y="370" type="line"/>
      <point x="330" y="600" type="line"/>
      <point x="320" y="611" type="line"/>
    </contour>
    <contour>
      <point x="123" y="755" type="move" name="top"/>
    </contour>
  </outline>
</glyph>
<glyph name="i" format="1">
  <unicode hex="0069"/>
  <advance width="470"/>
  <outline>
    <contour>
      <point x="20" y="386" type="line"/>
      <point x="10" y="376" type="line"/>
      <point x="10" y="245" type="line"/>
      <point x="20" y="235" type="line"/>
      <point x="85" y="235" type="line"/>
      <point x="85" y="151" type="line"/>
      <point x="20" y="151" type="line"/>
      <point x="10" y="141" type="line"/>
      <point x="10" y="10" type="line"/>
      <point x="20" y="0" type="line"/>
      <point x="455" y="0" type="line"/>
      <point x="465" y="10" type="line"/>
      <point x="465" y="141" type="line"/>
      <point x="455" y="151" type="line"/>
      <point x="390" y="151" type="line"/>
      <point x="390" y="376" type="line"/>
      <point x="380" y="386" type="line"/>
    </contour>
    <contour>
      <point x="85" y="611" type="line"/>
      <point x="75" y="601" type="line"/>
      <point x="75" y="441" type="line"/>
      <point x="85" y="431" type="line"/>
      <point x="380" y="431" type="line"/>
      <point x="390" y="441" type="line"/>
      <point x="390" y="601" type="line"/>
      <point x="380" y="611" type="line"/>
    </contour>
    <contour>
      <point x="159" y="755" type="move" name="top"/>
    </contour>
  </outline>
</glyph>
<glyph name="j" format="1">
  <unicode hex="006A"/>
  <advance width="410"/>
  <outline>
    <contour>
      <point x="80" y="611" type="line"/>
      <point x="70" y="601" type="line"/>
      <point x="70" y="441" type="line"/>
      <point x="80" y="431" type="line"/>
      <point x="375" y="431" type="line"/>
      <point x="385" y="441" type="line"/>
      <point x="385" y="601" type="line"/>
      <point x="375" y="611" type="line"/>
    </contour>
    <contour>
      <point x="15" y="386" type="line"/>
      <point x="5" y="376" type="line"/>
      <point x="5" y="245" type="line"/>
      <point x="15" y="235" type="line"/>
      <point x="80" y="235" type="line"/>
      <point x="80" y="-117" type="line"/>
      <point x="90" y="-127" type="line"/>
      <point x="375" y="-127" type="line"/>
      <point x="385" y="-117" type="line"/>
      <point x="385" y="376" type="line"/>
      <point x="375" y="386" type="line"/>
    </contour>
  </outline>
</glyph>
<glyph name="k" format="1">
  <unicode hex="006B"/>
  <advance width="720"/>
  <outline>
    <contour>
      <point x="405" y="474" type="line"/>
      <point x="395" y="464" type="line"/>
      <point x="395" y="315" type="line"/>
      <point x="330" y="315" type="line"/>
      <point x="330" y="601" type="line"/>
      <point x="320" y="611" type="line"/>
      <point x="35" y="611" type="line"/>
      <point x="25" y="601" type="line"/>
      <point x="25" y="10" type="line"/>
      <point x="35" y="0" type="line"/>
      <point x="320" y="0" type="line"/>
      <point x="330" y="10" type="line"/>
      <point x="330" y="165" type="line"/>
      <point x="383" y="165" type="line"/>
      <point x="425" y="-117" type="line"/>
      <point x="435" y="-127" type="line"/>
      <point x="690" y="-127" type="line"/>
      <point x="700" y="-117" type="line"/>
      <point x="700" y="138" type="line"/>
      <point x="607" y="242" type="line"/>
      <point x="700" y="345" type="line"/>
      <point x="700" y="464" type="line"/>
      <point x="690" y="474" type="line"/>
    </contour>
    <contour>
      <point x="229" y="755" type="move" name="top"/>
    </contour>
  </outline>
</glyph>
<glyph name="l" format="1">
  <unicode hex="006C"/>
  <advance width="355"/>
  <outline>
    <contour>
      <point x="35" y="611" type="line"/>
      <point x="25" y="601" type="line"/>
      <point x="25" y="10" type="line"/>
      <point x="35" y="0" type="line"/>
      <point x="320" y="0" type="line"/>
      <point x="330" y="10" type="line"/>
      <point x="330" y="600" type="line"/>
      <point x="320" y="611" type="line"/>
    </contour>
    <contour>
      <point x="124" y="755" type="move" name="top"/>
    </contour>
  </outline>
</glyph>
<glyph name="m" format="1">
  <unicode hex="006D"/>
  <advance width="1112"/>
  <outline>
    <contour>
      <point x="35" y="474" type="line"/>
      <point x="25" y="464" type="line"/>
      <point x="25" y="10" type="line"/>
      <point x="35" y="0" type="line"/>
      <point x="320" y="0" type="line"/>
      <point x="330" y="10" type="line"/>
      <point x="330" y="326" type="line"/>
      <point x="395" y="326" type="line"/>
      <point x="395" y="10" type="line"/>
      <point x="405" y="0" type="line"/>
      <point x="700" y="0" type="line"/>
      <point x="710" y="10" type="line"/>
      <point x="710" y="326" type="line"/>
      <point x="775" y="326" type="line"/>
      <point x="775" y="10" type="line"/>
      <point x="785" y="0" type="line"/>
      <point x="1080" y="0" type="line"/>
      <point x="1090" y="10" type="line"/>
      <point x="1090" y="354" type="line"/>
      <point x="965" y="474" type="line"/>
      <point x="796" y="474" type="line"/>
      <point x="702" y="361" type="line"/>
      <point x="585" y="474" type="line"/>
      <point x="416" y="474" type="line"/>
      <point x="327" y="366" type="line"/>
      <point x="290" y="474" type="line"/>
    </contour>
  </outline>
</glyph>
<glyph name="n" format="1">
  <unicode hex="006E"/>
  <advance width="732"/>
  <outline>
    <contour>
      <point x="35" y="474" type="line"/>
      <point x="25" y="464" type="line"/>
      <point x="25" y="10" type="line"/>
      <point x="35" y="0" type="line"/>
      <point x="320" y="0" type="line"/>
      <point x="330" y="10" type="line"/>
      <point x="330" y="326" type="line"/>
      <point x="395" y="326" type="line"/>
      <point x="395" y="10" type="line"/>
      <point x="405" y="0" type="line"/>
      <point x="700" y="0" type="line"/>
      <point x="710" y="10" type="line"/>
      <point x="710" y="354" type="line"/>
      <point x="585" y="474" type="line"/>
      <point x="416" y="474" type="line"/>
      <point x="327" y="366" type="line"/>
      <point x="290" y="474" type="line"/>
    </contour>
    <contour>
      <point x="278" y="755" type="move" name="top"/>
    </contour>
  </outline>
</glyph>
<glyph name="o" format="1">
  <unicode hex="006F"/>
  <advance width="735"/>
  <outline>
    <contour>
      <point x="145" y="474" type="line"/>
      <point x="20" y="354" type="line"/>
      <point x="20" y="120" type="line"/>
      <point x="145" y="0" type="line"/>
      <point x="590" y="0" type="line"/>
      <point x="715" y="120" type="line"/>
      <point x="715" y="354" type="line"/>
      <point x="590" y="474" type="line"/>
    </contour>
    <contour>
      <point x="335" y="379" type="line"/>
      <point x="400" y="379" type="line"/>
      <point x="400" y="95" type="line"/>
      <point x="335" y="95" type="line"/>
    </contour>
    <contour>
      <point x="254" y="755" type="move" name="top"/>
    </contour>
  </outline>
</glyph>
<glyph name="q" format="1">
  <unicode hex="0071"/>
  <advance width="730"/>
  <outline>
    <contour>
      <point x="145" y="474" type="line"/>
      <point x="20" y="354" type="line"/>
      <point x="20" y="120" type="line"/>
      <point x="145" y="0" type="line"/>
      <point x="314" y="0" type="line"/>
      <point x="400" y="86" type="line"/>
      <point x="400" y="-117" type="line"/>
      <point x="410" y="-127" type="line"/>
      <point x="695" y="-127" type="line"/>
      <point x="705" y="-117" type="line"/>
      <point x="705" y="464" type="line"/>
      <point x="695" y="474" type="line"/>
      <point x="441" y="474" type="line"/>
      <point x="402" y="385" type="line"/>
      <point x="314" y="474" type="line"/>
    </contour>
    <contour>
      <point x="335" y="346" type="line"/>
      <point x="400" y="346" type="line"/>
      <point x="400" y="128" type="line"/>
      <point x="335" y="128" type="line"/>
    </contour>
  </outline>
</glyph>
<glyph name="r" format="1">
  <unicode hex="0072"/>
  <advance width="663"/>
  <outline>
    <contour>
      <point x="80" y="464" type="line"/>
      <point x="80" y="151" type="line"/>
      <point x="15" y="151" type="line"/>
      <point x="5" y="141" type="line"/>
      <point x="5" y="10" type="line"/>
      <point x="15" y="0" type="line"/>
      <point x="630" y="0" type="line"/>
      <point x="640" y="10" type="line"/>
      <point x="640" y="141" type="line"/>
      <point x="630" y="151" type="line"/>
      <point x="385" y="151" type="line"/>
      <point x="385" y="196" type="line"/>
      <point x="630" y="196" type="line"/>
      <point x="640" y="206" type="line"/>
      <point x="640" y="464" type="line"/>
      <point x="628" y="474" type="line"/>
      <point x="471" y="474" type="line"/>
      <point x="382" y="348" type="line"/>
      <point x="345" y="474" type="line"/>
      <point x="90" y="474" type="line"/>
    </contour>
    <contour>
      <point x="200" y="755" type="move" name="top"/>
    </contour>
  </outline>
</glyph>
<glyph name="s" format="1">
  <unicode hex="0073"/>
  <advance width="725"/>
  <outline>
    <contour>
      <point x="120" y="474" type="line"/>
      <point x="25" y="385" type="line"/>
      <point x="25" y="281" type="line"/>
      <point x="121" y="191" type="line"/>
      <point x="395" y="191" type="line"/>
      <point x="395" y="95" type="line"/>
      <point x="330" y="95" type="line"/>
      <point x="330" y="140" type="line"/>
      <point x="320" y="151" type="line" name="hr01"/>
      <point x="25" y="151" type="line"/>
      <point x="15" y="141" type="line"/>
      <point x="15" y="40" type="line"/>
      <point x="56" y="0" type="line"/>
      <point x="615" y="0" type="line"/>
      <point x="710" y="90" type="line"/>
      <point x="710" y="193" type="line"/>
      <point x="615" y="283" type="line"/>
      <point x="330" y="283" type="line"/>
      <point x="330" y="379" type="line"/>
      <point x="395" y="379" type="line"/>
      <point x="395" y="333" type="line"/>
      <point x="405" y="323" type="line" name="hr02"/>
      <point x="690" y="323" type="line"/>
      <point x="700" y="333" type="line"/>
      <point x="700" y="434" type="line"/>
      <point x="660" y="474" type="line"/>
    </contour>
    <contour>
      <point x="219" y="755" type="move" name="top"/>
    </contour>
  </outline>
</glyph>
<glyph name="t" format="1">
  <unicode hex="0074"/>
  <advance width="440"/>
  <outline>
    <contour>
      <point x="360" y="386" type="line"/>
      <point x="360" y="513" type="line"/>
      <point x="350" y="523" type="line"/>
      <point x="95" y="523" type="line"/>
      <point x="85" y="513" type="line"/>
      <point x="55" y="386" type="line"/>
      <point x="10" y="386" type="line"/>
      <point x="0" y="376" type="line"/>
      <point x="0" y="245" type="line"/>
      <point x="10" y="235" type="line"/>
      <point x="55" y="235" type="line"/>
      <point x="55" y="120" type="line"/>
      <point x="180" y="0" type="line"/>
      <point x="425" y="0" type="line"/>
      <point x="435" y="10" type="line"/>
      <point x="435" y="141" type="line"/>
      <point x="360" y="206" type="line"/>
      <point x="360" y="235" type="line"/>
      <point x="425" y="235" type="line"/>
      <point x="435" y="245" type="line"/>
      <point x="435" y="376" type="line"/>
      <point x="425" y="386" type="line"/>
    </contour>
    <contour>
      <point x="222" y="755" type="move" name="top"/>
    </contour>
  </outline>
</glyph>
<glyph name="u" format="1">
  <unicode hex="0075"/>
  <advance width="735"/>
  <outline>
    <contour>
      <point x="415" y="474" type="line"/>
      <point x="405" y="464" type="line"/>
      <point x="405" y="148" type="line"/>
      <point x="340" y="148" type="line"/>
      <point x="340" y="464" type="line"/>
      <point x="330" y="474" type="line"/>
      <point x="35" y="474" type="line"/>
      <point x="25" y="464" type="line"/>
      <point x="25" y="120" type="line"/>
      <point x="150" y="0" type="line"/>
      <point x="319" y="0" type="line"/>
      <point x="407" y="107" type="line"/>
      <point x="445" y="0" type="line"/>
      <point x="700" y="0" type="line"/>
      <point x="710" y="10" type="line"/>
      <point x="710" y="464" type="line"/>
      <point x="700" y="474" type="line"/>
    </contour>
    <contour>
      <point x="249" y="755" type="move" name="top"/>
    </contour>
  </outline>
</glyph>
<glyph name="v" format="1">
  <unicode hex="0076"/>
  <advance width="715"/>
  <outline>
    <contour>
      <point x="25" y="474" type="line"/>
      <point x="15" y="464" type="line"/>
      <point x="15" y="220" type="line"/>
      <point x="141" y="0" type="line"/>
      <point x="574" y="0" type="line"/>
      <point x="700" y="220" type="line"/>
      <point x="700" y="464" type="line"/>
      <point x="690" y="474" type="line"/>
      <point x="398" y="474" type="line"/>
      <point x="388" y="464" type="line"/>
      <point x="388" y="105" type="line"/>
      <point x="327" y="105" type="line"/>
      <point x="327" y="464" type="line"/>
      <point x="317" y="474" type="line"/>
    </contour>
  </outline>
</glyph>
<glyph name="w" format="1">
  <unicode hex="0077"/>
  <advance width="1088"/>
  <outline>
    <contour>
      <point x="25" y="474" type="line"/>
      <point x="15" y="464" type="line"/>
      <point x="15" y="220" type="line"/>
      <point x="141" y="0" type="line"/>
      <point x="477" y="0" type="line"/>
      <point x="543" y="116" type="line"/>
      <point x="610" y="0" type="line"/>
      <point x="947" y="0" type="line"/>
      <point x="1073" y="220" type="line"/>
      <point x="1073" y="464" type="line"/>
      <point x="1063" y="474" type="line"/>
      <point x="771" y="474" type="line"/>
      <point x="761" y="464" type="line"/>
      <point x="761" y="105" type="line"/>
      <point x="700" y="105" type="line"/>
      <point x="700" y="464" type="line"/>
      <point x="690" y="474" type="line"/>
      <point x="398" y="474" type="line"/>
      <point x="388" y="464" type="line"/>
      <point x="388" y="105" type="line"/>
      <point x="327" y="105" type="line"/>
      <point x="327" y="464" type="line"/>
      <point x="317" y="474" type="line"/>
    </contour>
    <contour>
      <point x="336" y="755" type="move" name="top"/>
    </contour>
  </outline>
</glyph>
<glyph name="x" format="1">
  <unicode hex="0078"/>
  <advance width="725"/>
  <outline>
    <contour>
      <point x="20" y="129" type="line"/>
      <point x="20" y="10" type="line"/>
      <point x="30" y="0" type="line"/>
      <point x="322" y="0" type="line"/>
      <point x="332" y="10" type="line"/>
      <point x="332" y="159" type="line"/>
      <point x="393" y="159" type="line"/>
      <point x="393" y="10" type="line"/>
      <point x="403" y="0" type="line"/>
      <point x="695" y="0" type="line"/>
      <point x="705" y="10" type="line"/>
      <point x="705" y="129" type="line"/>
      <point x="586" y="237" type="line"/>
      <point x="705" y="345" type="line"/>
      <point x="705" y="464" type="line"/>
      <point x="695" y="474" type="line"/>
      <point x="403" y="474" type="line"/>
      <point x="393" y="464" type="line"/>
      <point x="393" y="315" type="line"/>
      <point x="332" y="315" type="line"/>
      <point x="332" y="464" type="line"/>
      <point x="322" y="474" type="line"/>
      <point x="30" y="474" type="line"/>
      <point x="20" y="464" type="line"/>
      <point x="20" y="345" type="line"/>
      <point x="138" y="237" type="line"/>
    </contour>
  </outline>
</glyph>
<glyph name="y" format="1">
  <unicode hex="0079"/>
  <advance width="715"/>
  <outline>
    <contour>
      <point x="25" y="474" type="line"/>
      <point x="15" y="464" type="line"/>
      <point x="15" y="220" type="line"/>
      <point x="141" y="0" type="line"/>
      <point x="185" y="0" type="line"/>
      <point x="185" y="-117" type="line"/>
      <point x="195" y="-127" type="line" name="hr01"/>
      <point x="520" y="-127" type="line"/>
      <point x="530" y="-117" type="line"/>
      <point x="530" y="0" type="line" name="hr02"/>
      <point x="574" y="0" type="line"/>
      <point x="700" y="220" type="line"/>
      <point x="700" y="464" type="line"/>
      <point x="690" y="474" type="line"/>
      <point x="398" y="474" type="line"/>
      <point x="388" y="464" type="line"/>
      <point x="388" y="105" type="line" name="hr03"/>
      <point x="327" y="105" type="line"/>
      <point x="327" y="464" type="line"/>
      <point x="317" y="474" type="line"/>
    </contour>
    <contour>
      <point x="220" y="755" type="move" name="top"/>
    </contour>
  </outline>
</glyph>
<glyph name="z" format="1">
  <unicode hex="007A"/>
  <advance width="500"/>
  <outline>
    <contour>
      <point x="30" y="474" type="line"/>
      <point x="20" y="464" type="line"/>
      <point x="20" y="303" type="line"/>
      <point x="30" y="293" type="line"/>
      <point x="146" y="293" type="line"/>
      <point x="20" y="168" type="line"/>
      <point x="20" y="10" type="line"/>
      <point x="30" y="0" type="line"/>
      <point x="470" y="0" type="line"/>
      <point x="480" y="10" type="line"/>
      <point x="480" y="171" type="line"/>
      <point x="470" y="181" type="line"/>
      <point x="354" y="181" type="line"/>
      <point x="480" y="306" type="line"/>
      <point x="480" y="464" type="line"/>
      <point x="470" y="474" type="line"/>
    </contour>
    <contour>
      <point x="217" y="755" type="move" name="top"/>
    </contour>
  </outline>
</glyph>
<glyph name="braceleft" format="1">
  <unicode hex="007B"/>
  <advance width="335"/>
  <outline>
    <contour>
      <point x="215" y="651" type="line"/>
      <point x="90" y="531" type="line"/>
      <point x="90" y="384" type="line"/>
      <point x="5" y="306" type="line"/>
      <point x="5" y="195" type="line"/>
      <point x="90" y="117" type="line"/>
      <point x="90" y="-47" type="line"/>
      <point x="214" y="-167" type="line"/>
      <point x="295" y="-167" type="line"/>
      <point x="305" y="-157" type="line"/>
      <point x="305" y="640" type="line"/>
      <point x="295" y="651" type="line"/>
    </contour>
  </outline>
</glyph>
<glyph name="bar" format="1">
  <unicode hex="007C"/>
  <advance width="275"/>
  <outline>
    <contour>
      <point x="40" y="651" type="line"/>
      <point x="30" y="641" type="line"/>
      <point x="30" y="-157" type="line"/>
      <point x="40" y="-167" type="line"/>
      <point x="235" y="-167" type="line"/>
      <point x="245" y="-157" type="line"/>
      <point x="245" y="640" type="line"/>
      <point x="235" y="651" type="line"/>
    </contour>
  </outline>
</glyph>
<glyph name="braceright" format="1">
  <unicode hex="007D"/>
  <advance width="336"/>
  <outline>
    <contour>
      <point x="40" y="651" type="line"/>
      <point x="30" y="640" type="line"/>
      <point x="30" y="-157" type="line"/>
      <point x="40" y="-167" type="line"/>
      <point x="121" y="-167" type="line"/>
      <point x="245" y="-47" type="line"/>
      <point x="245" y="117" type="line"/>
      <point x="330" y="195" type="line"/>
      <point x="330" y="306" type="line"/>
      <point x="245" y="384" type="line"/>
      <point x="245" y="531" type="line"/>
      <point x="120" y="651" type="line"/>
    </contour>
  </outline>
</glyph>
<glyph name="cent" format="1">
  <unicode hex="00A2"/>
  <advance width="707"/>
  <outline>
    <contour>
      <point x="436" y="-137" type="line"/>
      <point x="446" y="-127" type="line"/>
      <point x="441" y="0" type="line"/>
      <point x="675" y="0" type="line"/>
      <point x="685" y="10" type="line"/>
      <point x="685" y="141" type="line"/>
      <point x="675" y="151" type="line"/>
      <point x="335" y="151" type="line"/>
      <point x="335" y="384" type="line"/>
      <point x="400" y="384" type="line"/>
      <point x="400" y="206" type="line"/>
      <point x="410" y="196" type="line"/>
      <point x="675" y="196" type="line"/>
      <point x="685" y="206" type="line"/>
      <point x="685" y="424" type="line"/>
      <point x="635" y="474" type="line"/>
      <point x="441" y="474" type="line"/>
      <point x="446" y="591" type="line"/>
      <point x="436" y="601" type="line"/>
      <point x="296" y="601" type="line"/>
      <point x="286" y="591" type="line"/>
      <point x="291" y="474" type="line"/>
      <point x="145" y="474" type="line"/>
      <point x="20" y="354" type="line"/>
      <point x="20" y="120" type="line"/>
      <point x="145" y="0" type="line"/>
      <point x="291" y="0" type="line"/>
      <point x="286" y="-127" type="line"/>
      <point x="296" y="-137" type="line"/>
    </contour>
  </outline>
</glyph>
<glyph name="section" format="1">
  <unicode hex="00A7"/>
  <advance width="725"/>
  <outline>
    <contour>
      <point x="120" y="611" type="line"/>
      <point x="25" y="522" type="line"/>
      <point x="25" y="417" type="line"/>
      <point x="93" y="354" type="line"/>
      <point x="25" y="291" type="line"/>
      <point x="25" y="154" type="line"/>
      <point x="121" y="64" type="line"/>
      <point x="395" y="64" type="line"/>
      <point x="395" y="-32" type="line"/>
      <point x="330" y="-32" type="line"/>
      <point x="330" y="13" type="line"/>
      <point x="320" y="24" type="line" name="hr01"/>
      <point x="25" y="24" type="line"/>
      <point x="15" y="14" type="line"/>
      <point x="15" y="-87" type="line"/>
      <point x="56" y="-127" type="line"/>
      <point x="615" y="-127" type="line"/>
      <point x="710" y="-37" type="line"/>
      <point x="710" y="66" type="line"/>
      <point x="642" y="129" type="line"/>
      <point x="710" y="192" type="line"/>
      <point x="710" y="330" type="line"/>
      <point x="615" y="420" type="line"/>
      <point x="330" y="420" type="line"/>
      <point x="330" y="516" type="line"/>
      <point x="395" y="516" type="line"/>
      <point x="395" y="470" type="line"/>
      <point x="405" y="460" type="line" name="hr02"/>
      <point x="690" y="460" type="line"/>
      <point x="700" y="470" type="line"/>
      <point x="700" y="571" type="line"/>
      <point x="660" y="611" type="line"/>
    </contour>
    <contour>
      <point x="330" y="156" type="line"/>
      <point x="330" y="328" type="line"/>
      <point x="395" y="328" type="line"/>
      <point x="395" y="156" type="line"/>
    </contour>
  </outline>
</glyph>
<glyph name="copyright" format="1">
  <unicode hex="00A9"/>
  <advance width="757"/>
  <outline>
    <contour>
      <point x="209" y="611" type="line"/>
      <point x="20" y="446" type="line"/>
      <point x="20" y="103" type="line"/>
      <point x="209" y="-62" type="line"/>
      <point x="548" y="-62" type="line"/>
      <point x="737" y="103" type="line"/>
      <point x="737" y="446" type="line"/>
      <point x="548" y="611" type="line"/>
    </contour>
    <contour>
      <point x="261" y="503" type="line"/>
      <point x="515" y="503" type="line"/>
      <point x="524" y="493" type="line"/>
      <point x="524" y="377" type="line"/>
      <point x="515" y="368" type="line"/>
      <point x="453" y="368" type="line"/>
      <point x="453" y="184" type="line"/>
      <point x="515" y="184" type="line"/>
      <point x="524" y="175" type="line"/>
      <point x="524" y="59" type="line"/>
      <point x="515" y="49" type="line"/>
      <point x="261" y="49" type="line"/>
      <point x="142" y="164" type="line"/>
      <point x="142" y="388" type="line"/>
    </contour>
  </outline>
</glyph>
<glyph name="guillemotleft" format="1">
  <unicode hex="00AB"/>
  <advance width="663"/>
  <outline>
    <contour>
      <point x="324" y="0" type="line"/>
      <point x="334" y="10" type="line"/>
      <point x="334" y="108" type="line"/>
      <point x="212" y="240" type="line"/>
      <point x="334" y="372" type="line"/>
      <point x="334" y="464" type="line"/>
      <point x="324" y="474" type="line"/>
      <point x="145" y="474" type="line"/>
      <point x="5" y="304" type="line"/>
      <point x="5" y="171" type="line"/>
      <point x="145" y="0" type="line"/>
    </contour>
    <contour>
      <point x="648" y="0" type="line"/>
      <point x="658" y="10" type="line"/>
      <point x="658" y="108" type="line"/>
      <point x="536" y="240" type="line"/>
      <point x="658" y="372" type="line"/>
      <point x="658" y="464" type="line"/>
      <point x="648" y="474" type="line"/>
      <point x="469" y="474" type="line"/>
      <point x="329" y="304" type="line"/>
      <point x="329" y="171" type="line"/>
      <point x="469" y="0" type="line"/>
    </contour>
  </outline>
</glyph>
<glyph name="registered" format="1">
  <unicode hex="00AE"/>
  <advance width="887"/>
  <outline>
    <contour>
      <point x="209" y="611" type="line"/>
      <point x="20" y="446" type="line"/>
      <point x="20" y="103" type="line"/>
      <point x="209" y="-62" type="line"/>
      <point x="678" y="-62" type="line"/>
      <point x="867" y="103" type="line"/>
      <point x="867" y="446" type="line"/>
      <point x="678" y="611" type="line"/>
    </contour>
    <contour>
      <point x="530" y="55" type="line"/>
      <point x="431" y="164" type="line"/>
      <point x="431" y="62" type="line"/>
      <point x="424" y="55" type="line"/>
      <point x="212" y="55" type="line"/>
      <point x="205" y="62" type="line"/>
      <point x="205" y="501" type="line"/>
      <point x="212" y="508" type="line"/>
      <point x="620" y="508" type="line"/>
      <point x="713" y="419" type="line"/>
      <point x="713" y="278" type="line"/>
      <point x="655" y="220" type="line"/>
      <point x="713" y="212" type="line"/>
      <point x="713" y="62" type="line"/>
      <point x="706" y="55" type="line"/>
    </contour>
    <contour>
      <point x="431" y="438" type="line"/>
      <point x="431" y="235" type="line"/>
      <point x="479" y="235" type="line"/>
      <point x="479" y="438" type="line"/>
    </contour>
  </outline>
</glyph>
<glyph name="degree" format="1">
  <unicode hex="00B0"/>
  <advance width="487"/>
  <outline>
    <contour>
      <point x="104" y="611" type="line"/>
      <point x="5" y="516" type="line"/>
      <point x="5" y="330" type="line"/>
      <point x="104" y="235" type="line"/>
      <point x="383" y="235" type="line"/>
      <point x="482" y="330" type="line"/>
      <point x="482" y="516" type="line"/>
      <point x="383" y="611" type="line"/>
    </contour>
    <contour>
      <point x="212" y="536" type="line"/>
      <point x="275" y="536" type="line"/>
      <point x="275" y="310" type="line"/>
      <point x="212" y="310" type="line"/>
    </contour>
  </outline>
</glyph>
<glyph name="acute" format="1">
  <unicode hex="00B4"/>
  <advance width="500"/>
  <outline>
    <contour>
      <point x="188" y="704" type="line"/>
      <point x="137" y="504" type="line"/>
      <point x="347" y="504" type="line"/>
      <point x="398" y="674" type="line"/>
      <point x="398" y="704" type="line"/>
    </contour>
    <contour>
      <point x="200" y="755" type="move" name="_top"/>
    </contour>
  </outline>
</glyph>
<glyph name="mu" format="1">
  <unicode hex="00B5"/>
  <advance width="735"/>
  <outline>
    <contour>
      <point x="415" y="474" type="line"/>
      <point x="405" y="464" type="line"/>
      <point x="405" y="148" type="line"/>
      <point x="340" y="148" type="line"/>
      <point x="340" y="464" type="line"/>
      <point x="330" y="474" type="line"/>
      <point x="35" y="474" type="line"/>
      <point x="25" y="464" type="line"/>
      <point x="25" y="-117" type="line"/>
      <point x="35" y="-127" type="line"/>
      <point x="309" y="-127" type="line"/>
      <point x="319" y="-117" type="line"/>
      <point x="319" y="0" type="line"/>
      <point x="407" y="107" type="line"/>
      <point x="445" y="0" type="line"/>
      <point x="700" y="0" type="line"/>
      <point x="710" y="10" type="line"/>
      <point x="710" y="464" type="line"/>
      <point x="700" y="474" type="line"/>
    </contour>
  </outline>
</glyph>
<glyph name="paragraph" format="1">
  <unicode hex="00B6"/>
  <advance width="825"/>
  <outline>
    <contour>
      <point x="810" y="460" type="line"/>
      <point x="820" y="470" type="line"/>
      <point x="820" y="601" type="line"/>
      <point x="810" y="611" type="line"/>
      <point x="130" y="611" type="line"/>
      <point x="5" y="491" type="line"/>
      <point x="5" y="237" type="line"/>
      <point x="140" y="107" type="line"/>
      <point x="210" y="107" type="line"/>
      <point x="210" y="10" type="line"/>
      <point x="220" y="0" type="line"/>
      <point x="465" y="0" type="line"/>
      <point x="475" y="10" type="line"/>
      <point x="475" y="460" type="line"/>
      <point x="540" y="460" type="line"/>
      <point x="540" y="10" type="line"/>
      <point x="550" y="0" type="line"/>
      <point x="735" y="0" type="line"/>
      <point x="745" y="10" type="line"/>
      <point x="745" y="460" type="line"/>
    </contour>
  </outline>
</glyph>
<glyph name="guillemotright" format="1">
  <unicode hex="00BB"/>
  <advance width="663"/>
  <outline>
    <contour>
      <point x="15" y="474" type="line"/>
      <point x="5" y="464" type="line"/>
      <point x="5" y="366" type="line"/>
      <point x="127" y="234" type="line"/>
      <point x="5" y="102" type="line"/>
      <point x="5" y="10" type="line"/>
      <point x="15" y="0" type="line"/>
      <point x="194" y="0" type="line"/>
      <point x="334" y="170" type="line"/>
      <point x="334" y="303" type="line"/>
      <point x="194" y="474" type="line"/>
    </contour>
    <contour>
      <point x="339" y="474" type="line"/>
      <point x="329" y="464" type="line"/>
      <point x="329" y="366" type="line"/>
      <point x="451" y="234" type="line"/>
      <point x="329" y="102" type="line"/>
      <point x="329" y="10" type="line"/>
      <point x="339" y="0" type="line"/>
      <point x="518" y="0" type="line"/>
      <point x="658" y="170" type="line"/>
      <point x="658" y="303" type="line"/>
      <point x="518" y="474" type="line"/>
    </contour>
  </outline>
</glyph>
<glyph name="Oacute" format="1">
  <unicode hex="00D3"/>
  <advance width="735"/>
  <outline>
    <contour>
      <point x="175" y="611" type="line"/>
      <point x="20" y="461" type="line"/>
      <point x="20" y="150" type="line"/>
      <point x="175" y="0" type="line"/>
      <point x="560" y="0" type="line"/>
      <point x="715" y="150" type="line"/>
      <point x="715" y="461" type="line"/>
      <point x="560" y="611" type="line"/>
    </contour>
    <contour>
      <point x="400" y="516" type="line"/>
      <point x="400" y="95" type="line"/>
      <point x="335" y="95" type="line"/>
      <point x="335" y="516" type="line"/>
    </contour>
    <contour>
      <point x="287" y="841" type="line"/>
      <point x="236" y="641" type="line"/>
      <point x="446" y="641" type="line"/>
      <point x="497" y="811" type="line"/>
      <point x="497" y="841" type="line"/>
    </contour>
  </outline>
</glyph>
<glyph name="multiply" format="1">
  <unicode hex="00D7"/>
  <advance width="543"/>
  <outline>
    <contour>
      <point x="538" y="414" type="line"/>
      <point x="538" y="428" type="line"/>
      <point x="424" y="541" type="line"/>
      <point x="410" y="541" type="line"/>
      <point x="271" y="402" type="line"/>
      <point x="132" y="541" type="line"/>
      <point x="118" y="541" type="line"/>
      <point x="5" y="428" type="line"/>
      <point x="5" y="414" type="line"/>
      <point x="144" y="275" type="line"/>
      <point x="5" y="136" type="line"/>
      <point x="5" y="121" type="line"/>
      <point x="118" y="8" type="line"/>
      <point x="132" y="8" type="line"/>
      <point x="271" y="147" type="line"/>
      <point x="410" y="8" type="line"/>
      <point x="424" y="8" type="line"/>
      <point x="538" y="121" type="line"/>
      <point x="538" y="136" type="line"/>
      <point x="399" y="275" type="line"/>
    </contour>
  </outline>
</glyph>
<glyph name="oacute" format="1">
  <unicode hex="00F3"/>
  <advance width="735"/>
  <outline>
    <contour>
      <point x="145" y="474" type="line"/>
      <point x="20" y="354" type="line"/>
      <point x="20" y="120" type="line"/>
      <point x="145" y="0" type="line"/>
      <point x="590" y="0" type="line"/>
      <point x="715" y="120" type="line"/>
      <point x="715" y="354" type="line"/>
      <point x="590" y="474" type="line"/>
    </contour>
    <contour>
      <point x="335" y="379" type="line"/>
      <point x="400" y="379" type="line"/>
      <point x="400" y="95" type="line"/>
      <point x="335" y="95" type="line"/>
    </contour>
    <contour>
      <point x="291" y="704" type="line"/>
      <point x="240" y="504" type="line"/>
      <point x="450" y="504" type="line"/>
      <point x="501" y="674" type="line"/>
      <point x="501" y="704" type="line"/>
    </contour>
  </outline>
</glyph>
<glyph name="divide" format="1">
  <unicode hex="00F7"/>
  <advance width="596"/>
  <outline>
    <contour>
      <point x="25" y="364" type="line"/>
      <point x="15" y="354" type="line"/>
      <point x="15" y="194" type="line"/>
      <point x="25" y="184" type="line"/>
      <point x="570" y="184" type="line"/>
      <point x="580" y="194" type="line"/>
      <point x="580" y="354" type="line"/>
      <point x="570" y="364" type="line"/>
    </contour>
    <contour>
      <point x="242" y="150" type="line"/>
      <point x="202" y="112" type="line"/>
      <point x="202" y="39" type="line"/>
      <point x="242" y="0" type="line"/>
      <point x="353" y="0" type="line"/>
      <point x="392" y="39" type="line"/>
      <point x="392" y="112" type="line"/>
      <point x="353" y="150" type="line"/>
    </contour>
    <contour>
      <point x="242" y="548" type="line"/>
      <point x="202" y="510" type="line"/>
      <point x="202" y="437" type="line"/>
      <point x="242" y="398" type="line"/>
      <point x="353" y="398" type="line"/>
      <point x="392" y="437" type="line"/>
      <point x="392" y="510" type="line"/>
      <point x="353" y="548" type="line"/>
    </contour>
  </outline>
</glyph>
<glyph name="Aogonek" format="1">
  <unicode hex="0104"/>
  <advance width="735"/>
  <outline>
    <contour>
      <point x="175" y="611" type="line"/>
      <point x="20" y="299" type="line"/>
      <point x="20" y="10" type="line"/>
      <point x="30" y="0" type="line"/>
      <point x="325" y="0" type="line"/>
      <point x="335" y="10" type="line"/>
      <point x="335" y="132" type="line"/>
      <point x="400" y="132" type="line"/>
      <point x="400" y="10" type="line"/>
      <point x="410" y="0" type="line"/>
      <point x="495" y="0" type="line"/>
      <point x="368" y="-97" type="line"/>
      <point x="368" y="-127" type="line"/>
      <point x="578" y="-127" type="line"/>
      <point x="715" y="10" type="line"/>
      <point x="715" y="299" type="line"/>
      <point x="560" y="611" type="line"/>
    </contour>
    <contour>
      <point x="335" y="486" type="line"/>
      <point x="400" y="486" type="line"/>
      <point x="400" y="283" type="line"/>
      <point x="335" y="283" type="line"/>
    </contour>
  </outline>
</glyph>
<glyph name="aogonek" format="1">
  <unicode hex="0105"/>
  <advance width="723"/>
  <outline>
    <contour>
      <point x="395" y="385" type="line"/>
      <point x="307" y="474" type="line"/>
      <point x="138" y="474" type="line"/>
      <point x="13" y="354" type="line"/>
      <point x="13" y="120" type="line"/>
      <point x="138" y="0" type="line"/>
      <point x="307" y="0" type="line"/>
      <point x="395" y="88" type="line"/>
      <point x="434" y="0" type="line"/>
      <point x="688" y="0" type="line"/>
      <point x="698" y="10" type="line"/>
      <point x="698" y="464" type="line"/>
      <point x="688" y="474" type="line"/>
      <point x="434" y="474" type="line"/>
    </contour>
    <contour>
      <point x="688" y="0" type="line"/>
      <point x="478" y="0" type="line"/>
      <point x="351" y="-97" type="line"/>
      <point x="351" y="-127" type="line"/>
      <point x="561" y="-127" type="line"/>
    </contour>
    <contour>
      <point x="328" y="346" type="line"/>
      <point x="393" y="346" type="line"/>
      <point x="393" y="128" type="line"/>
      <point x="328" y="128" type="line"/>
    </contour>
  </outline>
</glyph>
<glyph name="Cacute" format="1">
  <unicode hex="0106"/>
  <advance width="450"/>
  <outline>
    <contour>
      <point x="175" y="611" type="line"/>
      <point x="20" y="461" type="line"/>
      <point x="20" y="150" type="line"/>
      <point x="175" y="0" type="line"/>
      <point x="430" y="0" type="line"/>
      <point x="440" y="10" type="line"/>
      <point x="440" y="131" type="line"/>
      <point x="430" y="141" type="line"/>
      <point x="355" y="141" type="line"/>
      <point x="355" y="470" type="line"/>
      <point x="430" y="470" type="line"/>
      <point x="440" y="480" type="line"/>
      <point x="440" y="601" type="line"/>
      <point x="430" y="611" type="line"/>
    </contour>
    <contour>
      <point x="238" y="841" type="line"/>
      <point x="187" y="641" type="line"/>
      <point x="397" y="641" type="line"/>
      <point x="448" y="811" type="line"/>
      <point x="448" y="841" type="line"/>
    </contour>
  </outline>
</glyph>
<glyph name="cacute" format="1">
  <unicode hex="0107"/>
  <advance width="707"/>
  <outline>
    <contour>
      <point x="145" y="474" type="line"/>
      <point x="20" y="354" type="line"/>
      <point x="20" y="120" type="line"/>
      <point x="145" y="0" type="line"/>
      <point x="675" y="0" type="line"/>
      <point x="685" y="10" type="line"/>
      <point x="685" y="141" type="line"/>
      <point x="675" y="151" type="line"/>
      <point x="335" y="151" type="line"/>
      <point x="335" y="384" type="line"/>
      <point x="400" y="384" type="line"/>
      <point x="400" y="206" type="line"/>
      <point x="410" y="196" type="line"/>
      <point x="675" y="196" type="line"/>
      <point x="685" y="206" type="line"/>
      <point x="685" y="424" type="line"/>
      <point x="635" y="474" type="line"/>
    </contour>
    <contour>
      <point x="299" y="704" type="line"/>
      <point x="248" y="504" type="line"/>
      <point x="458" y="504" type="line"/>
      <point x="509" y="674" type="line"/>
      <point x="509" y="704" type="line"/>
    </contour>
  </outline>
</glyph>
<glyph name="Eogonek" format="1">
  <unicode hex="0118"/>
  <advance width="470"/>
  <outline>
    <contour>
      <point x="40" y="611" type="line"/>
      <point x="30" y="601" type="line"/>
      <point x="30" y="10" type="line"/>
      <point x="40" y="0" type="line"/>
      <point x="230" y="0" type="line"/>
      <point x="103" y="-97" type="line"/>
      <point x="103" y="-127" type="line"/>
      <point x="313" y="-127" type="line"/>
      <point x="450" y="10" type="line"/>
      <point x="450" y="141" type="line"/>
      <point x="440" y="151" type="line"/>
      <point x="335" y="151" type="line"/>
      <point x="335" y="237" type="line"/>
      <point x="430" y="237" type="line"/>
      <point x="440" y="247" type="line"/>
      <point x="440" y="378" type="line"/>
      <point x="430" y="388" type="line"/>
      <point x="335" y="388" type="line"/>
      <point x="335" y="460" type="line"/>
      <point x="440" y="460" type="line"/>
      <point x="450" y="470" type="line"/>
      <point x="450" y="601" type="line"/>
      <point x="440" y="611" type="line"/>
    </contour>
  </outline>
</glyph>
<glyph name="eogonek" format="1">
  <unicode hex="0119"/>
  <advance width="725"/>
  <outline>
    <contour>
      <point x="145" y="0" type="line"/>
      <point x="485" y="0" type="line"/>
      <point x="358" y="-97" type="line"/>
      <point x="358" y="-127" type="line"/>
      <point x="568" y="-127" type="line"/>
      <point x="705" y="10" type="line"/>
      <point x="705" y="141" type="line"/>
      <point x="695" y="151" type="line"/>
      <point x="335" y="151" type="line"/>
      <point x="335" y="196" type="line"/>
      <point x="695" y="196" type="line"/>
      <point x="705" y="206" type="line"/>
      <point x="705" y="354" type="line"/>
      <point x="580" y="474" type="line"/>
      <point x="145" y="474" type="line"/>
      <point x="20" y="354" type="line"/>
      <point x="20" y="120" type="line"/>
    </contour>
    <contour>
      <point x="335" y="384" type="line"/>
      <point x="400" y="384" type="line"/>
      <point x="400" y="256" type="line"/>
      <point x="335" y="256" type="line"/>
    </contour>
  </outline>
</glyph>
<glyph name="Lslash" format="1">
  <unicode hex="0141"/>
  <advance width="515"/>
  <outline>
    <contour>
      <point x="90" y="611" type="line"/>
      <point x="80" y="601" type="line"/>
      <point x="80" y="372" type="line"/>
      <point x="10" y="354" type="line"/>
      <point x="0" y="344" type="line"/>
      <point x="0" y="174" type="line"/>
      <point x="10" y="164" type="line"/>
      <point x="80" y="182" type="line"/>
      <point x="80" y="10" type="line"/>
      <point x="90" y="0" type="line"/>
      <point x="500" y="0" type="line"/>
      <point x="510" y="10" type="line"/>
      <point x="510" y="141" type="line"/>
      <point x="500" y="151" type="line"/>
      <point x="395" y="151" type="line"/>
      <point x="395" y="266" type="line"/>
      <point x="500" y="294" type="line"/>
      <point x="510" y="304" type="line"/>
      <point x="510" y="474" type="line"/>
      <point x="500" y="484" type="line"/>
      <point x="395" y="456" type="line"/>
      <point x="395" y="600" type="line"/>
      <point x="385" y="611" type="line"/>
    </contour>
  </outline>
</glyph>
<glyph name="lslash" format="1">
  <unicode hex="0142"/>
  <advance width="485"/>
  <outline>
    <contour>
      <point x="100" y="611" type="line"/>
      <point x="90" y="601" type="line"/>
      <point x="90" y="375" type="line"/>
      <point x="15" y="354" type="line"/>
      <point x="5" y="344" type="line"/>
      <point x="5" y="174" type="line"/>
      <point x="15" y="164" type="line"/>
      <point x="90" y="185" type="line"/>
      <point x="90" y="10" type="line"/>
      <point x="100" y="0" type="line"/>
      <point x="385" y="0" type="line"/>
      <point x="395" y="10" type="line"/>
      <point x="395" y="272" type="line"/>
      <point x="470" y="294" type="line"/>
      <point x="480" y="304" type="line"/>
      <point x="480" y="474" type="line"/>
      <point x="470" y="484" type="line"/>
      <point x="395" y="462" type="line"/>
      <point x="395" y="600" type="line"/>
      <point x="385" y="611" type="line"/>
    </contour>
  </outline>
</glyph>
<glyph name="Nacute" format="1">
  <unicode hex="0143"/>
  <advance width="735"/>
  <outline>
    <contour>
      <point x="40" y="611" type="line"/>
      <point x="30" y="601" type="line"/>
      <point x="30" y="10" type="line"/>
      <point x="40" y="0" type="line"/>
      <point x="325" y="0" type="line"/>
      <point x="335" y="10" type="line"/>
      <point x="335" y="375" type="line"/>
      <point x="400" y="336" type="line"/>
      <point x="400" y="10" type="line"/>
      <point x="410" y="0" type="line"/>
      <point x="695" y="0" type="line"/>
      <point x="705" y="10" type="line"/>
      <point x="705" y="600" type="line"/>
      <point x="695" y="611" type="line"/>
      <point x="440" y="611" type="line"/>
      <point x="402" y="501" type="line"/>
      <point x="245" y="611" type="line"/>
    </contour>
    <contour>
      <point x="288" y="841" type="line"/>
      <point x="237" y="641" type="line"/>
      <point x="447" y="641" type="line"/>
      <point x="498" y="811" type="line"/>
      <point x="498" y="841" type="line"/>
    </contour>
  </outline>
</glyph>
<glyph name="nacute" format="1">
  <unicode hex="0144"/>
  <advance width="732"/>
  <outline>
    <contour>
      <point x="35" y="474" type="line"/>
      <point x="25" y="464" type="line"/>
      <point x="25" y="10" type="line"/>
      <point x="35" y="0" type="line"/>
      <point x="320" y="0" type="line"/>
      <point x="330" y="10" type="line"/>
      <point x="330" y="326" type="line"/>
      <point x="395" y="326" type="line"/>
      <point x="395" y="10" type="line"/>
      <point x="405" y="0" type="line"/>
      <point x="700" y="0" type="line"/>
      <point x="710" y="10" type="line"/>
      <point x="710" y="354" type="line"/>
      <point x="585" y="474" type="line"/>
      <point x="416" y="474" type="line"/>
      <point x="327" y="366" type="line"/>
      <point x="290" y="474" type="line"/>
    </contour>
    <contour>
      <point x="323" y="704" type="line"/>
      <point x="272" y="504" type="line"/>
      <point x="482" y="504" type="line"/>
      <point x="533" y="674" type="line"/>
      <point x="533" y="704" type="line"/>
    </contour>
  </outline>
</glyph>
<glyph name="Sacute" format="1">
  <unicode hex="015A"/>
  <advance width="735"/>
  <outline>
    <contour>
      <point x="115" y="611" type="line"/>
      <point x="20" y="522" type="line"/>
      <point x="20" y="296" type="line"/>
      <point x="116" y="206" type="line"/>
      <point x="400" y="206" type="line"/>
      <point x="400" y="161" type="line"/>
      <point x="30" y="161" type="line"/>
      <point x="20" y="151" type="line"/>
      <point x="20" y="10" type="line"/>
      <point x="30" y="0" type="line"/>
      <point x="620" y="0" type="line"/>
      <point x="715" y="90" type="line"/>
      <point x="715" y="266" type="line"/>
      <point x="620" y="356" type="line"/>
      <point x="335" y="356" type="line"/>
      <point x="335" y="516" type="line"/>
      <point x="400" y="516" type="line"/>
      <point x="400" y="406" type="line"/>
      <point x="410" y="396" type="line" name="hr01"/>
      <point x="695" y="396" type="line"/>
      <point x="705" y="406" type="line"/>
      <point x="705" y="571" type="line"/>
      <point x="665" y="611" type="line"/>
    </contour>
    <contour>
      <point x="288" y="841" type="line"/>
      <point x="237" y="641" type="line"/>
      <point x="447" y="641" type="line"/>
      <point x="498" y="811" type="line"/>
      <point x="498" y="841" type="line"/>
    </contour>
  </outline>
</glyph>
<glyph name="sacute" format="1">
  <unicode hex="015B"/>
  <advance width="725"/>
  <outline>
    <contour>
      <point x="120" y="474" type="line"/>
      <point x="25" y="385" type="line"/>
      <point x="25" y="281" type="line"/>
      <point x="121" y="191" type="line"/>
      <point x="395" y="191" type="line"/>
      <point x="395" y="95" type="line"/>
      <point x="330" y="95" type="line"/>
      <point x="330" y="140" type="line"/>
      <point x="320" y="151" type="line" name="hr01"/>
      <point x="25" y="151" type="line"/>
      <point x="15" y="141" type="line"/>
      <point x="15" y="40" type="line"/>
      <point x="56" y="0" type="line"/>
      <point x="615" y="0" type="line"/>
      <point x="710" y="90" type="line"/>
      <point x="710" y="193" type="line"/>
      <point x="615" y="283" type="line"/>
      <point x="330" y="283" type="line"/>
      <point x="330" y="379" type="line"/>
      <point x="395" y="379" type="line"/>
      <point x="395" y="333" type="line"/>
      <point x="405" y="323" type="line" name="hr02"/>
      <point x="690" y="323" type="line"/>
      <point x="700" y="333" type="line"/>
      <point x="700" y="434" type="line"/>
      <point x="660" y="474" type="line"/>
    </contour>
    <contour>
      <point x="287" y="704" type="line"/>
      <point x="236" y="504" type="line"/>
      <point x="446" y="504" type="line"/>
      <point x="497" y="674" type="line"/>
      <point x="497" y="704" type="line"/>
    </contour>
  </outline>
</glyph>
<glyph name="Zdotaccent" format="1">
  <unicode hex="017B"/>
  <advance width="510"/>
  <outline>
    <contour>
      <point x="30" y="611" type="line"/>
      <point x="20" y="601" type="line"/>
      <point x="20" y="440" type="line"/>
      <point x="30" y="430" type="line"/>
      <point x="176" y="430" type="line"/>
      <point x="20" y="168" type="line"/>
      <point x="20" y="10" type="line"/>
      <point x="30" y="0" type="line"/>
      <point x="480" y="0" type="line"/>
      <point x="490" y="10" type="line"/>
      <point x="490" y="171" type="line"/>
      <point x="480" y="181" type="line"/>
      <point x="334" y="181" type="line"/>
      <point x="490" y="443" type="line"/>
      <point x="490" y="601" type="line"/>
      <point x="480" y="611" type="line"/>
    </contour>
    <contour>
      <point x="180" y="841" type="line"/>
      <point x="127" y="790" type="line"/>
      <point x="127" y="692" type="line"/>
      <point x="180" y="641" type="line"/>
      <point x="329" y="641" type="line"/>
      <point x="381" y="692" type="line"/>
      <point x="381" y="790" type="line"/>
      <point x="329" y="841" type="line"/>
    </contour>
  </outline>
</glyph>
<glyph name="zdotaccent" format="1">
  <unicode hex="017C"/>
  <advance width="500"/>
  <outline>
    <contour>
      <point x="30" y="474" type="line"/>
      <point x="20" y="464" type="line"/>
      <point x="20" y="303" type="line"/>
      <point x="30" y="293" type="line"/>
      <point x="146" y="293" type="line"/>
      <point x="20" y="168" type="line"/>
      <point x="20" y="10" type="line"/>
      <point x="30" y="0" type="line"/>
      <point x="470" y="0" type="line"/>
      <point x="480" y="10" type="line"/>
      <point x="480" y="171" type="line"/>
      <point x="470" y="181" type="line"/>
      <point x="354" y="181" type="line"/>
      <point x="480" y="306" type="line"/>
      <point x="480" y="464" type="line"/>
      <point x="470" y="474" type="line"/>
    </contour>
    <contour>
      <point x="180" y="704" type="line"/>
      <point x="127" y="653" type="line"/>
      <point x="127" y="555" type="line"/>
      <point x="180" y="504" type="line"/>
      <point x="329" y="504" type="line"/>
      <point x="381" y="555" type="line"/>
      <point x="381" y="653" type="line"/>
      <point x="329" y="704" type="line"/>
    </contour>
  </outline>
</glyph>
<glyph name="dotaccent" format="1">
  <unicode hex="02D9"/>
  <advance width="500"/>
  <outline>
    <contour>
      <point x="175" y="704" type="line"/>
      <point x="122" y="653" type="line"/>
      <point x="122" y="555" type="line"/>
      <point x="175" y="504" type="line"/>
      <point x="324" y="504" type="line"/>
      <point x="376" y="555" type="line"/>
      <point x="376" y="653" type="line"/>
      <point x="324" y="704" type="line"/>
    </contour>
  </outline>
</glyph>
<glyph name="ogonek" format="1">
  <unicode hex="02DB"/>
  <advance width="400"/>
  <outline>
    <contour>
      <point x="695" y="0" type="line"/>
      <point x="485" y="0" type="line"/>
      <point x="358" y="-97" type="line"/>
      <point x="358" y="-127" type="line"/>
      <point x="568" y="-127" type="line"/>
    </contour>
    <contour>
      <point x="200" y="755" type="move" name="_top"/>
    </contour>
  </outline>
</glyph>
<glyph name="endash" format="1">
  <unicode hex="2013"/>
  <advance width="595"/>
  <outline>
    <contour>
      <point x="25" y="364" type="line"/>
      <point x="15" y="354" type="line"/>
      <point x="15" y="194" type="line"/>
      <point x="25" y="184" type="line"/>
      <point x="570" y="184" type="line"/>
      <point x="580" y="194" type="line"/>
      <point x="580" y="354" type="line"/>
      <point x="570" y="364" type="line"/>
    </contour>
  </outline>
</glyph>
<glyph name="emdash" format="1">
  <unicode hex="2014"/>
  <advance width="825"/>
  <outline>
    <contour>
      <point x="25" y="364" type="line"/>
      <point x="15" y="354" type="line"/>
      <point x="15" y="194" type="line"/>
      <point x="25" y="184" type="line"/>
      <point x="800" y="184" type="line"/>
      <point x="810" y="194" type="line"/>
      <point x="810" y="354" type="line"/>
      <point x="800" y="364" type="line"/>
    </contour>
  </outline>
</glyph>
<glyph name="quoteleft" format="1">
  <unicode hex="2018"/>
  <advance width="274"/>
  <outline>
    <contour>
      <point x="211" y="337" type="line"/>
      <point x="264" y="388" type="line"/>
      <point x="264" y="486" type="line"/>
      <point x="211" y="537" type="line"/>
      <point x="176" y="537" type="line"/>
      <point x="176" y="654" type="line"/>
      <point x="166" y="664" type="line"/>
      <point x="72" y="664" type="line"/>
      <point x="10" y="486" type="line"/>
      <point x="10" y="388" type="line"/>
      <point x="62" y="337" type="line"/>
    </contour>
  </outline>
</glyph>
<glyph name="quoteright" format="1">
  <unicode hex="2019"/>
  <advance width="274"/>
  <outline>
    <contour>
      <point x="63" y="611" type="line"/>
      <point x="10" y="560" type="line"/>
      <point x="10" y="462" type="line"/>
      <point x="63" y="411" type="line"/>
      <point x="98" y="411" type="line"/>
      <point x="98" y="294" type="line"/>
      <point x="108" y="284" type="line"/>
      <point x="202" y="284" type="line"/>
      <point x="264" y="462" type="line"/>
      <point x="264" y="560" type="line"/>
      <point x="212" y="611" type="line"/>
    </contour>
  </outline>
</glyph>
<glyph name="quotedblleft" format="1">
  <unicode hex="201C"/>
  <advance width="548"/>
  <outline>
    <contour>
      <point x="211" y="337" type="line"/>
      <point x="264" y="388" type="line"/>
      <point x="264" y="486" type="line"/>
      <point x="211" y="537" type="line"/>
      <point x="176" y="537" type="line"/>
      <point x="176" y="654" type="line"/>
      <point x="166" y="664" type="line"/>
      <point x="72" y="664" type="line"/>
      <point x="10" y="486" type="line"/>
      <point x="10" y="388" type="line"/>
      <point x="62" y="337" type="line"/>
    </contour>
    <contour>
      <point x="485" y="337" type="line"/>
      <point x="538" y="388" type="line"/>
      <point x="538" y="486" type="line"/>
      <point x="485" y="537" type="line"/>
      <point x="450" y="537" type="line"/>
      <point x="450" y="654" type="line"/>
      <point x="440" y="664" type="line"/>
      <point x="346" y="664" type="line"/>
      <point x="284" y="486" type="line"/>
      <point x="284" y="388" type="line"/>
      <point x="336" y="337" type="line"/>
    </contour>
  </outline>
</glyph>
<glyph name="quotedblright" format="1">
  <unicode hex="201D"/>
  <advance width="548"/>
  <outline>
    <contour>
      <point x="63" y="611" type="line"/>
      <point x="10" y="560" type="line"/>
      <point x="10" y="462" type="line"/>
      <point x="63" y="411" type="line"/>
      <point x="98" y="411" type="line"/>
      <point x="98" y="294" type="line"/>
      <point x="108" y="284" type="line"/>
      <point x="202" y="284" type="line"/>
      <point x="264" y="462" type="line"/>
      <point x="264" y="560" type="line"/>
      <point x="212" y="611" type="line"/>
    </contour>
    <contour>
      <point x="337" y="611" type="line"/>
      <point x="284" y="560" type="line"/>
      <point x="284" y="462" type="line"/>
      <point x="337" y="411" type="line"/>
      <point x="372" y="411" type="line"/>
      <point x="372" y="294" type="line"/>
      <point x="382" y="284" type="line"/>
      <point x="476" y="284" type="line"/>
      <point x="538" y="462" type="line"/>
      <point x="538" y="560" type="line"/>
      <point x="486" y="611" type="line"/>
    </contour>
  </outline>
</glyph>
<glyph name="quotedblbase" format="1">
  <unicode hex="201E"/>
  <advance width="548"/>
  <outline>
    <contour>
      <point x="63" y="200" type="line"/>
      <point x="10" y="149" type="line"/>
      <point x="10" y="51" type="line"/>
      <point x="63" y="0" type="line"/>
      <point x="98" y="0" type="line"/>
      <point x="98" y="-117" type="line"/>
      <point x="108" y="-127" type="line"/>
      <point x="202" y="-127" type="line"/>
      <point x="264" y="51" type="line"/>
      <point x="264" y="149" type="line"/>
      <point x="212" y="200" type="line"/>
    </contour>
    <contour>
      <point x="337" y="200" type="line"/>
      <point x="284" y="149" type="line"/>
      <point x="284" y="51" type="line"/>
      <point x="337" y="0" type="line"/>
      <point x="372" y="0" type="line"/>
      <point x="372" y="-117" type="line"/>
      <point x="382" y="-127" type="line"/>
      <point x="476" y="-127" type="line"/>
      <point x="538" y="51" type="line"/>
      <point x="538" y="149" type="line"/>
      <point x="486" y="200" type="line"/>
    </contour>
  </outline>
</glyph>
<glyph name="dagger" format="1">
  <unicode hex="2020"/>
  <advance width="525"/>
  <outline>
    <contour>
      <point x="165" y="651" type="line"/>
      <point x="155" y="641" type="line"/>
      <point x="155" y="364" type="line"/>
      <point x="15" y="364" type="line"/>
      <point x="5" y="354" type="line"/>
      <point x="5" y="193" type="line"/>
      <point x="15" y="183" type="line"/>
      <point x="155" y="183" type="line"/>
      <point x="155" y="-157" type="line"/>
      <point x="165" y="-167" type="line"/>
      <point x="360" y="-167" type="line"/>
      <point x="370" y="-157" type="line"/>
      <point x="370" y="183" type="line"/>
      <point x="510" y="183" type="line"/>
      <point x="520" y="193" type="line"/>
      <point x="520" y="354" type="line"/>
      <point x="510" y="364" type="line"/>
      <point x="370" y="364" type="line"/>
      <point x="370" y="640" type="line"/>
      <point x="360" y="651" type="line"/>
    </contour>
  </outline>
</glyph>
<glyph name="bullet" format="1">
  <unicode hex="2022"/>
  <advance width="274"/>
  <outline>
    <contour>
      <point x="63" y="374" type="line"/>
      <point x="10" y="323" type="line"/>
      <point x="10" y="225" type="line"/>
      <point x="63" y="174" type="line"/>
      <point x="212" y="174" type="line"/>
      <point x="264" y="225" type="line"/>
      <point x="264" y="323" type="line"/>
      <point x="212" y="374" type="line"/>
    </contour>
  </outline>
</glyph>
<glyph name="ellipsis" format="1">
  <unicode hex="2026"/>
  <advance width="822"/>
  <outline>
    <contour>
      <point x="63" y="200" type="line"/>
      <point x="10" y="149" type="line"/>
      <point x="10" y="51" type="line"/>
      <point x="63" y="0" type="line"/>
      <point x="212" y="0" type="line"/>
      <point x="264" y="51" type="line"/>
      <point x="264" y="149" type="line"/>
      <point x="212" y="200" type="line"/>
    </contour>
    <contour>
      <point x="337" y="200" type="line"/>
      <point x="284" y="149" type="line"/>
      <point x="284" y="51" type="line"/>
      <point x="337" y="0" type="line"/>
      <point x="486" y="0" type="line"/>
      <point x="538" y="51" type="line"/>
      <point x="538" y="149" type="line"/>
      <point x="486" y="200" type="line"/>
    </contour>
    <contour>
      <point x="611" y="200" type="line"/>
      <point x="558" y="149" type="line"/>
      <point x="558" y="51" type="line"/>
      <point x="611" y="0" type="line"/>
      <point x="760" y="0" type="line"/>
      <point x="812" y="51" type="line"/>
      <point x="812" y="149" type="line"/>
      <point x="760" y="200" type="line"/>
    </contour>
  </outline>
</glyph>
<glyph name="guilsinglleft" format="1">
  <unicode hex="2039"/>
  <advance width="339"/>
  <outline>
    <contour>
      <point x="324" y="0" type="line"/>
      <point x="334" y="10" type="line"/>
      <point x="334" y="108" type="line"/>
      <point x="212" y="240" type="line"/>
      <point x="334" y="372" type="line"/>
      <point x="334" y="464" type="line"/>
      <point x="324" y="474" type="line"/>
      <point x="145" y="474" type="line"/>
      <point x="5" y="304" type="line"/>
      <point x="5" y="171" type="line"/>
      <point x="145" y="0" type="line"/>
    </contour>
  </outline>
</glyph>
<glyph name="guilsinglright" format="1">
  <unicode hex="203A"/>
  <advance width="339"/>
  <outline>
    <contour>
      <point x="15" y="474" type="line"/>
      <point x="5" y="464" type="line"/>
      <point x="5" y="366" type="line"/>
      <point x="127" y="234" type="line"/>
      <point x="5" y="102" type="line"/>
      <point x="5" y="10" type="line"/>
      <point x="15" y="0" type="line"/>
      <point x="194" y="0" type="line"/>
      <point x="334" y="170" type="line"/>
      <point x="334" y="303" type="line"/>
      <point x="194" y="474" type="line"/>
    </contour>
  </outline>
</glyph>
<glyph name="franc" format="1">
  <unicode hex="20A3"/>
  <advance width="500"/>
  <outline>
    <contour>
      <point x="0" y="72" type="line"/>
      <point x="10" y="62" type="line"/>
      <point x="75" y="62" type="line"/>
      <point x="75" y="10" type="line"/>
      <point x="85" y="0" type="line"/>
      <point x="370" y="0" type="line"/>
      <point x="380" y="10" type="line"/>
      <point x="380" y="62" type="line"/>
      <point x="455" y="62" type="line"/>
      <point x="465" y="72" type="line"/>
      <point x="465" y="142" type="line"/>
      <point x="455" y="152" type="line"/>
      <point x="380" y="152" type="line"/>
      <point x="380" y="202" type="line"/>
      <point x="475" y="202" type="line"/>
      <point x="485" y="212" type="line"/>
      <point x="485" y="343" type="line"/>
      <point x="475" y="353" type="line"/>
      <point x="380" y="353" type="line"/>
      <point x="380" y="460" type="line"/>
      <point x="485" y="460" type="line"/>
      <point x="495" y="470" type="line"/>
      <point x="495" y="601" type="line"/>
      <point x="485" y="611" type="line"/>
      <point x="85" y="611" type="line"/>
      <point x="75" y="601" type="line"/>
      <point x="75" y="152" type="line"/>
      <point x="10" y="152" type="line"/>
      <point x="0" y="142" type="line"/>
    </contour>
  </outline>
</glyph>
<glyph name="Euro" format="1">
  <unicode hex="20AC"/>
  <advance width="505"/>
  <outline>
    <contour>
      <point x="0" y="339" type="line"/>
      <point x="10" y="329" type="line"/>
      <point x="75" y="329" type="line"/>
      <point x="75" y="284" type="line"/>
      <point x="10" y="284" type="line"/>
      <point x="0" y="274" type="line"/>
      <point x="0" y="204" type="line"/>
      <point x="10" y="194" type="line"/>
      <point x="75" y="194" type="line"/>
      <point x="75" y="140" type="line"/>
      <point x="230" y="0" type="line"/>
      <point x="485" y="0" type="line"/>
      <point x="495" y="10" type="line"/>
      <point x="495" y="131" type="line"/>
      <point x="485" y="141" type="line"/>
      <point x="410" y="141" type="line"/>
      <point x="410" y="194" type="line"/>
      <point x="485" y="194" type="line"/>
      <point x="495" y="204" type="line"/>
      <point x="495" y="274" type="line"/>
      <point x="485" y="284" type="line"/>
      <point x="410" y="284" type="line"/>
      <point x="410" y="329" type="line"/>
      <point x="485" y="329" type="line"/>
      <point x="495" y="339" type="line"/>
      <point x="495" y="409" type="line"/>
      <point x="485" y="419" type="line"/>
      <point x="410" y="419" type="line"/>
      <point x="410" y="470" type="line"/>
      <point x="485" y="470" type="line"/>
      <point x="495" y="480" type="line"/>
      <point x="495" y="601" type="line"/>
      <point x="485" y="611" type="line"/>
      <point x="230" y="611" type="line"/>
      <point x="75" y="471" type="line"/>
      <point x="75" y="419" type="line"/>
      <point x="10" y="419" type="line"/>
      <point x="0" y="409" type="line"/>
    </contour>
  </outline>
</glyph>
<glyph name="uni2117" format="1">
  <unicode hex="2117"/>
  <advance width="857"/>
  <outline>
    <contour>
      <point x="209" y="611" type="line"/>
      <point x="20" y="446" type="line"/>
      <point x="20" y="103" type="line"/>
      <point x="209" y="-62" type="line"/>
      <point x="648" y="-62" type="line"/>
      <point x="837" y="103" type="line"/>
      <point x="837" y="446" type="line"/>
      <point x="648" y="611" type="line"/>
    </contour>
    <contour>
      <point x="215" y="503" type="line"/>
      <point x="623" y="503" type="line"/>
      <point x="716" y="414" type="line"/>
      <point x="716" y="255" type="line"/>
      <point x="615" y="159" type="line" name="hr01"/>
      <point x="434" y="159" type="line"/>
      <point x="434" y="57" type="line"/>
      <point x="426" y="50" type="line" name="hr02"/>
      <point x="215" y="50" type="line"/>
      <point x="207" y="57" type="line"/>
      <point x="207" y="496" type="line"/>
    </contour>
    <contour>
      <point x="434" y="433" type="line"/>
      <point x="434" y="237" type="line"/>
      <point x="482" y="237" type="line"/>
      <point x="482" y="433" type="line"/>
    </contour>
  </outline>
</glyph>
<glyph name="uni2120" format="1">
  <unicode hex="2120"/>
  <advance width="1029"/>
  <outline>
    <contour>
      <point x="68" y="611" type="line"/>
      <point x="10" y="556" type="line"/>
      <point x="10" y="417" type="line"/>
      <point x="69" y="362" type="line"/>
      <point x="244" y="362" type="line"/>
      <point x="244" y="334" type="line"/>
      <point x="16" y="334" type="line"/>
      <point x="10" y="328" type="line"/>
      <point x="10" y="241" type="line"/>
      <point x="16" y="235" type="line"/>
      <point x="379" y="235" type="line"/>
      <point x="438" y="290" type="line"/>
      <point x="438" y="399" type="line"/>
      <point x="379" y="454" type="line"/>
      <point x="204" y="454" type="line"/>
      <point x="204" y="553" type="line"/>
      <point x="244" y="553" type="line"/>
      <point x="244" y="485" type="line"/>
      <point x="250" y="479" type="line"/>
      <point x="425" y="479" type="line"/>
      <point x="431" y="485" type="line"/>
      <point x="431" y="586" type="line"/>
      <point x="407" y="611" type="line"/>
    </contour>
    <contour>
      <point x="827" y="611" type="line"/>
      <point x="743" y="460" type="line"/>
      <point x="656" y="611" type="line"/>
      <point x="475" y="611" type="line"/>
      <point x="468" y="605" type="line"/>
      <point x="468" y="241" type="line"/>
      <point x="475" y="235" type="line"/>
      <point x="638" y="235" type="line"/>
      <point x="644" y="241" type="line"/>
      <point x="644" y="354" type="line"/>
      <point x="694" y="235" type="line"/>
      <point x="788" y="235" type="line"/>
      <point x="839" y="354" type="line"/>
      <point x="839" y="241" type="line"/>
      <point x="845" y="235" type="line"/>
      <point x="1008" y="235" type="line"/>
      <point x="1014" y="241" type="line"/>
      <point x="1014" y="604" type="line"/>
      <point x="1008" y="611" type="line"/>
    </contour>
  </outline>
</glyph>
<glyph name="trademark" format="1">
  <unicode hex="2122"/>
  <advance width="926"/>
  <outline>
    <contour>
      <point x="723" y="611" type="line"/>
      <point x="640" y="460" type="line"/>
      <point x="553" y="611" type="line"/>
      <point x="371" y="611" type="line"/>
      <point x="365" y="605" type="line"/>
      <point x="365" y="241" type="line"/>
      <point x="371" y="235" type="line"/>
      <point x="534" y="235" type="line"/>
      <point x="540" y="241" type="line"/>
      <point x="540" y="354" type="line"/>
      <point x="591" y="235" type="line"/>
      <point x="685" y="235" type="line"/>
      <point x="735" y="354" type="line"/>
      <point x="735" y="241" type="line"/>
      <point x="742" y="235" type="line"/>
      <point x="905" y="235" type="line"/>
      <point x="911" y="241" type="line"/>
      <point x="911" y="604" type="line"/>
      <point x="905" y="611" type="line"/>
    </contour>
    <contour>
      <point x="11" y="611" type="line"/>
      <point x="5" y="605" type="line"/>
      <point x="5" y="518" type="line"/>
      <point x="11" y="512" type="line"/>
      <point x="76" y="512" type="line"/>
      <point x="76" y="241" type="line"/>
      <point x="82" y="235" type="line"/>
      <point x="263" y="235" type="line"/>
      <point x="270" y="241" type="line"/>
      <point x="270" y="512" type="line"/>
      <point x="334" y="512" type="line"/>
      <point x="340" y="518" type="line"/>
      <point x="340" y="605" type="line"/>
      <point x="334" y="611" type="line"/>
    </contour>
  </outline>
</glyph>
<glyph name="minus" format="1">
  <unicode hex="2212"/>
  <advance width="596"/>
  <outline>
    <contour>
      <point x="25" y="364" type="line"/>
      <point x="15" y="354" type="line"/>
      <point x="15" y="194" type="line"/>
      <point x="25" y="184" type="line"/>
      <point x="570" y="184" type="line"/>
      <point x="580" y="194" type="line"/>
      <point x="580" y="354" type="line"/>
      <point x="570" y="364" type="line"/>
    </contour>
  </outline>
</glyph>
<glyph name="I.alt1" format="1">
  <advance width="475"/>
  <outline>
    <contour>
      <point x="15" y="151" type="line"/>
      <point x="5" y="141" type="line"/>
      <point x="5" y="10" type="line"/>
      <point x="15" y="0" type="line"/>
      <point x="460" y="0" type="line"/>
      <point x="470" y="10" type="line"/>
      <point x="470" y="141" type="line"/>
      <point x="460" y="151" type="line"/>
      <point x="395" y="151" type="line"/>
      <point x="395" y="460" type="line"/>
      <point x="460" y="460" type="line"/>
      <point x="470" y="470" type="line"/>
      <point x="470" y="601" type="line"/>
      <point x="460" y="611" type="line"/>
      <point x="15" y="611" type="line"/>
      <point x="5" y="601" type="line"/>
      <point x="5" y="470" type="line"/>
      <point x="15" y="460" type="line"/>
      <point x="80" y="460" type="line"/>
      <point x="80" y="151" type="line"/>
    </contour>
  </outline>
</glyph>
<glyph name="M.alt1" format="1">
  <advance width="1105"/>
  <outline>
    <contour>
      <point x="40" y="611" type="line"/>
      <point x="30" y="601" type="line"/>
      <point x="30" y="10" type="line"/>
      <point x="40" y="0" type="line"/>
      <point x="325" y="0" type="line"/>
      <point x="335" y="10" type="line"/>
      <point x="335" y="460" type="line"/>
      <point x="400" y="460" type="line"/>
      <point x="400" y="10" type="line"/>
      <point x="410" y="0" type="line"/>
      <point x="695" y="0" type="line"/>
      <point x="705" y="10" type="line"/>
      <point x="705" y="460" type="line"/>
      <point x="770" y="460" type="line"/>
      <point x="770" y="10" type="line"/>
      <point x="780" y="0" type="line"/>
      <point x="1065" y="0" type="line"/>
      <point x="1075" y="10" type="line"/>
      <point x="1075" y="600" type="line"/>
      <point x="1065" y="611" type="line"/>
    </contour>
  </outline>
</glyph>
<glyph name="M.alt2" format="1">
  <advance width="735"/>
  <outline>
    <contour>
      <point x="490" y="611" type="line"/>
      <point x="367" y="466" type="line"/>
      <point x="245" y="611" type="line"/>
      <point x="40" y="611" type="line"/>
      <point x="30" y="601" type="line"/>
      <point x="30" y="10" type="line"/>
      <point x="40" y="0" type="line"/>
      <point x="325" y="0" type="line"/>
      <point x="335" y="10" type="line"/>
      <point x="335" y="309" type="line"/>
      <point x="367" y="274" type="line"/>
      <point x="400" y="309" type="line"/>
      <point x="400" y="10" type="line"/>
      <point x="410" y="0" type="line"/>
      <point x="695" y="0" type="line"/>
      <point x="705" y="10" type="line"/>
      <point x="705" y="600" type="line"/>
      <point x="695" y="611" type="line"/>
    </contour>
  </outline>
</glyph>
<glyph name="N.alt1" format="1">
  <advance width="735"/>
  <outline>
    <contour>
      <point x="40" y="611" type="line"/>
      <point x="30" y="601" type="line"/>
      <point x="30" y="10" type="line"/>
      <point x="40" y="0" type="line"/>
      <point x="325" y="0" type="line"/>
      <point x="335" y="10" type="line"/>
      <point x="335" y="460" type="line"/>
      <point x="400" y="460" type="line"/>
      <point x="400" y="10" type="line"/>
      <point x="410" y="0" type="line"/>
      <point x="695" y="0" type="line"/>
      <point x="705" y="10" type="line"/>
      <point x="705" y="600" type="line"/>
      <point x="695" y="611" type="line"/>
    </contour>
  </outline>
</glyph>
<glyph name=".notdef" format="1">
  <advance width="636"/>
  <outline>
    <contour>
      <point x="80" y="680" type="line"/>
      <point x="80" y="0" type="line"/>
      <point x="556" y="0" type="line"/>
      <point x="556" y="680" type="line"/>
    </contour>
    <contour>
      <point x="352" y="339" type="line"/>
      <point x="485" y="583" type="line"/>
      <point x="485" y="96" type="line"/>
    </contour>
    <contour>
      <point x="284" y="339" type="line"/>
      <point x="151" y="96" type="line"/>
      <point x="151" y="583" type="line"/>
    </contour>
    <contour>
      <point x="199" y="619" type="line"/>
      <point x="437" y="619" type="line"/>
      <point x="318" y="401" type="line"/>
    </contour>
    <contour>
      <point x="318" y="277" type="line"/>
      <point x="436" y="61" type="line"/>
      <point x="199" y="61" type="line"/>
    </contour>
  </outline>
</glyph>
<glyph name="a.alt1" format="1">
  <advance width="725"/>
  <outline>
    <contour>
      <point x="436" y="474" type="line"/>
      <point x="397" y="385" type="line"/>
      <point x="309" y="474" type="line"/>
      <point x="35" y="474" type="line"/>
      <point x="25" y="464" type="line"/>
      <point x="25" y="10" type="line"/>
      <point x="35" y="0" type="line"/>
      <point x="309" y="0" type="line"/>
      <point x="397" y="88" type="line"/>
      <point x="436" y="0" type="line"/>
      <point x="690" y="0" type="line"/>
      <point x="700" y="10" type="line"/>
      <point x="700" y="464" type="line"/>
      <point x="690" y="474" type="line"/>
    </contour>
    <contour>
      <point x="330" y="346" type="line"/>
      <point x="395" y="346" type="line"/>
      <point x="395" y="128" type="line"/>
      <point x="330" y="128" type="line"/>
    </contour>
  </outline>
</glyph>
<glyph name="aogonek.alt1" format="1">
  <advance width="725"/>
  <outline>
    <contour>
      <point x="436" y="474" type="line"/>
      <point x="397" y="385" type="line"/>
      <point x="309" y="474" type="line"/>
      <point x="35" y="474" type="line"/>
      <point x="25" y="464" type="line"/>
      <point x="25" y="10" type="line"/>
      <point x="35" y="0" type="line"/>
      <point x="309" y="0" type="line"/>
      <point x="397" y="88" type="line"/>
      <point x="436" y="0" type="line"/>
      <point x="480" y="0" type="line"/>
      <point x="353" y="-97" type="line"/>
      <point x="353" y="-127" type="line"/>
      <point x="563" y="-127" type="line"/>
      <point x="700" y="10" type="line"/>
      <point x="700" y="464" type="line"/>
      <point x="690" y="474" type="line"/>
    </contour>
    <contour>
      <point x="330" y="346" type="line"/>
      <point x="395" y="346" type="line"/>
      <point x="395" y="128" type="line"/>
      <point x="330" y="128" type="line"/>
    </contour>
  </outline>
</glyph>
<glyph name="aogonek.alt2" format="1">
  <advance width="730"/>
  <outline>
    <contour>
      <point x="150" y="474" type="line"/>
      <point x="25" y="354" type="line"/>
      <point x="25" y="120" type="line"/>
      <point x="150" y="0" type="line"/>
      <point x="319" y="0" type="line"/>
      <point x="407" y="88" type="line"/>
      <point x="446" y="0" type="line"/>
      <point x="490" y="0" type="line"/>
      <point x="363" y="-97" type="line"/>
      <point x="363" y="-127" type="line"/>
      <point x="573" y="-127" type="line"/>
      <point x="710" y="10" type="line"/>
      <point x="710" y="464" type="line"/>
      <point x="700" y="474" type="line"/>
    </contour>
    <contour>
      <point x="340" y="384" type="line"/>
      <point x="405" y="384" type="line"/>
      <point x="405" y="128" type="line"/>
      <point x="340" y="128" type="line"/>
    </contour>
  </outline>
</glyph>
<glyph name="b.alt1" format="1">
  <advance width="722"/>
  <outline>
    <contour>
      <point x="35" y="611" type="line"/>
      <point x="25" y="601" type="line"/>
      <point x="25" y="120" type="line"/>
      <point x="150" y="0" type="line"/>
      <point x="575" y="0" type="line"/>
      <point x="700" y="120" type="line"/>
      <point x="700" y="464" type="line"/>
      <point x="689" y="474" type="line"/>
      <point x="330" y="474" type="line"/>
      <point x="330" y="600" type="line"/>
      <point x="320" y="611" type="line"/>
    </contour>
    <contour>
      <point x="330" y="379" type="line"/>
      <point x="395" y="379" type="line"/>
      <point x="395" y="95" type="line"/>
      <point x="330" y="95" type="line"/>
    </contour>
  </outline>
</glyph>
<glyph name="b.alt2" format="1">
  <advance width="730"/>
  <outline>
    <contour>
      <point x="35" y="611" type="line"/>
      <point x="25" y="601" type="line"/>
      <point x="25" y="10" type="line"/>
      <point x="35" y="0" type="line"/>
      <point x="585" y="0" type="line"/>
      <point x="710" y="120" type="line"/>
      <point x="710" y="354" type="line"/>
      <point x="585" y="474" type="line"/>
      <point x="416" y="474" type="line"/>
      <point x="330" y="388" type="line"/>
      <point x="330" y="601" type="line"/>
      <point x="320" y="611" type="line"/>
    </contour>
    <contour>
      <point x="395" y="346" type="line"/>
      <point x="395" y="90" type="line"/>
      <point x="330" y="90" type="line"/>
      <point x="330" y="346" type="line"/>
    </contour>
  </outline>
</glyph>
<glyph name="c.alt1" format="1">
  <advance width="425"/>
  <outline>
    <contour>
      <point x="145" y="474" type="line"/>
      <point x="20" y="354" type="line"/>
      <point x="20" y="120" type="line"/>
      <point x="145" y="0" type="line"/>
      <point x="410" y="0" type="line"/>
      <point x="420" y="10" type="line"/>
      <point x="420" y="131" type="line"/>
      <point x="410" y="141" type="line"/>
      <point x="345" y="141" type="line"/>
      <point x="345" y="333" type="line"/>
      <point x="410" y="333" type="line"/>
      <point x="420" y="343" type="line"/>
      <point x="420" y="464" type="line"/>
      <point x="410" y="474" type="line"/>
    </contour>
  </outline>
</glyph>
<glyph name="cacute.alt1" format="1">
  <advance width="425"/>
  <outline>
    <contour>
      <point x="145" y="474" type="line"/>
      <point x="20" y="354" type="line"/>
      <point x="20" y="120" type="line"/>
      <point x="145" y="0" type="line"/>
      <point x="410" y="0" type="line"/>
      <point x="420" y="10" type="line"/>
      <point x="420" y="131" type="line"/>
      <point x="410" y="141" type="line"/>
      <point x="345" y="141" type="line"/>
      <point x="345" y="333" type="line"/>
      <point x="410" y="333" type="line"/>
      <point x="420" y="343" type="line"/>
      <point x="420" y="464" type="line"/>
      <point x="410" y="474" type="line"/>
    </contour>
    <contour>
      <point x="217" y="704" type="line"/>
      <point x="166" y="504" type="line"/>
      <point x="376" y="504" type="line"/>
      <point x="427" y="674" type="line"/>
      <point x="427" y="704" type="line"/>
    </contour>
  </outline>
</glyph>
<glyph name="cacute.alt2" format="1">
  <advance width="707"/>
  <outline>
    <contour>
      <point x="441" y="474" type="line"/>
      <point x="402" y="385" type="line"/>
      <point x="314" y="474" type="line"/>
      <point x="145" y="474" type="line"/>
      <point x="20" y="354" type="line"/>
      <point x="20" y="120" type="line"/>
      <point x="145" y="0" type="line"/>
      <point x="675" y="0" type="line"/>
      <point x="685" y="10" type="line"/>
      <point x="685" y="141" type="line"/>
      <point x="675" y="151" type="line"/>
      <point x="335" y="151" type="line"/>
      <point x="335" y="346" type="line"/>
      <point x="400" y="346" type="line"/>
      <point x="400" y="206" type="line"/>
      <point x="410" y="196" type="line"/>
      <point x="675" y="196" type="line"/>
      <point x="685" y="206" type="line"/>
      <point x="685" y="464" type="line"/>
      <point x="675" y="474" type="line"/>
    </contour>
    <contour>
      <point x="303" y="704" type="line"/>
      <point x="252" y="504" type="line"/>
      <point x="462" y="504" type="line"/>
      <point x="513" y="674" type="line"/>
      <point x="513" y="704" type="line"/>
    </contour>
  </outline>
</glyph>
<glyph name="d.alt1" format="1">
  <advance width="730"/>
  <outline>
    <contour>
      <point x="410" y="611" type="line"/>
      <point x="400" y="601" type="line"/>
      <point x="400" y="474" type="line"/>
      <point x="145" y="474" type="line"/>
      <point x="20" y="354" type="line"/>
      <point x="20" y="120" type="line"/>
      <point x="145" y="0" type="line"/>
      <point x="314" y="0" type="line"/>
      <point x="402" y="88" type="line"/>
      <point x="441" y="0" type="line"/>
      <point x="695" y="0" type="line"/>
      <point x="705" y="10" type="line"/>
      <point x="705" y="601" type="line"/>
      <point x="695" y="611" type="line"/>
    </contour>
    <contour>
      <point x="335" y="384" type="line"/>
      <point x="400" y="384" type="line"/>
      <point x="400" y="128" type="line"/>
      <point x="335" y="128" type="line"/>
    </contour>
  </outline>
</glyph>
<glyph name="e.alt1" format="1">
  <advance width="710"/>
  <outline>
    <contour>
      <point x="32" y="474" type="line"/>
      <point x="22" y="464" type="line"/>
      <point x="22" y="120" type="line"/>
      <point x="147" y="0" type="line"/>
      <point x="677" y="0" type="line"/>
      <point x="687" y="10" type="line"/>
      <point x="687" y="141" type="line"/>
      <point x="677" y="151" type="line"/>
      <point x="327" y="151" type="line"/>
      <point x="327" y="196" type="line"/>
      <point x="677" y="196" type="line"/>
      <point x="687" y="206" type="line"/>
      <point x="687" y="464" type="line"/>
      <point x="677" y="474" type="line"/>
    </contour>
    <contour>
      <point x="327" y="384" type="line"/>
      <point x="392" y="384" type="line"/>
      <point x="392" y="256" type="line"/>
      <point x="327" y="256" type="line"/>
    </contour>
  </outline>
</glyph>
<glyph name="e.alt2" format="1">
  <advance width="525"/>
  <outline>
    <contour>
      <point x="35" y="474" type="line"/>
      <point x="25" y="464" type="line"/>
      <point x="25" y="10" type="line"/>
      <point x="35" y="0" type="line"/>
      <point x="495" y="0" type="line"/>
      <point x="505" y="10" type="line"/>
      <point x="505" y="131" type="line"/>
      <point x="495" y="141" type="line"/>
      <point x="330" y="141" type="line"/>
      <point x="330" y="186" type="line"/>
      <point x="475" y="186" type="line"/>
      <point x="485" y="196" type="line"/>
      <point x="485" y="278" type="line"/>
      <point x="475" y="288" type="line"/>
      <point x="330" y="288" type="line"/>
      <point x="330" y="333" type="line"/>
      <point x="495" y="333" type="line"/>
      <point x="505" y="343" type="line"/>
      <point x="505" y="464" type="line"/>
      <point x="495" y="474" type="line"/>
    </contour>
  </outline>
</glyph>
<glyph name="eogonek.alt2" format="1">
  <advance width="525"/>
  <outline>
    <contour>
      <point x="35" y="474" type="line"/>
      <point x="25" y="464" type="line"/>
      <point x="25" y="10" type="line"/>
      <point x="35" y="0" type="line"/>
      <point x="285" y="0" type="line"/>
      <point x="158" y="-97" type="line"/>
      <point x="158" y="-127" type="line"/>
      <point x="368" y="-127" type="line"/>
      <point x="505" y="10" type="line"/>
      <point x="505" y="131" type="line"/>
      <point x="495" y="141" type="line"/>
      <point x="330" y="141" type="line"/>
      <point x="330" y="186" type="line"/>
      <point x="475" y="186" type="line"/>
      <point x="485" y="196" type="line"/>
      <point x="485" y="278" type="line"/>
      <point x="475" y="288" type="line"/>
      <point x="330" y="288" type="line"/>
      <point x="330" y="333" type="line"/>
      <point x="495" y="333" type="line"/>
      <point x="505" y="343" type="line"/>
      <point x="505" y="464" type="line"/>
      <point x="495" y="474" type="line"/>
    </contour>
  </outline>
</glyph>
<glyph name="f.alt1" format="1">
  <advance width="455"/>
  <outline>
    <contour>
      <point x="15" y="410" type="line"/>
      <point x="5" y="400" type="line"/>
      <point x="5" y="269" type="line"/>
      <point x="15" y="259" type="line"/>
      <point x="60" y="259" type="line"/>
      <point x="60" y="-107" type="line"/>
      <point x="70" y="-117" type="line"/>
      <point x="365" y="-87" type="line"/>
      <point x="375" y="-77" type="line"/>
      <point x="375" y="259" type="line"/>
      <point x="440" y="259" type="line"/>
      <point x="450" y="269" type="line"/>
      <point x="450" y="400" type="line"/>
      <point x="440" y="410" type="line"/>
      <point x="310" y="410" type="line"/>
      <point x="310" y="455" type="line"/>
      <point x="440" y="455" type="line"/>
      <point x="450" y="465" type="line"/>
      <point x="450" y="601" type="line"/>
      <point x="440" y="611" type="line"/>
      <point x="60" y="611" type="line"/>
      <point x="60" y="410" type="line"/>
    </contour>
  </outline>
</glyph>
<glyph name="g.alt1" format="1">
  <advance width="709"/>
  <outline>
    <contour>
      <point x="33" y="474" type="line"/>
      <point x="22" y="464" type="line"/>
      <point x="22" y="128" type="line"/>
      <point x="87" y="68" type="line"/>
      <point x="392" y="68" type="line"/>
      <point x="392" y="24" type="line"/>
      <point x="32" y="24" type="line"/>
      <point x="22" y="14" type="line"/>
      <point x="22" y="-117" type="line"/>
      <point x="32" y="-127" type="line"/>
      <point x="555" y="-127" type="line"/>
      <point x="687" y="0" type="line"/>
      <point x="687" y="227" type="line"/>
      <point x="499" y="283" type="line"/>
      <point x="499" y="313" type="line"/>
      <point x="677" y="303" type="line"/>
      <point x="687" y="313" type="line"/>
      <point x="687" y="464" type="line"/>
      <point x="677" y="474" type="line"/>
    </contour>
    <contour>
      <point x="317" y="380" type="line"/>
      <point x="382" y="380" type="line"/>
      <point x="382" y="163" type="line"/>
      <point x="317" y="163" type="line"/>
    </contour>
  </outline>
</glyph>
<glyph name="h.alt1" format="1">
  <advance width="725"/>
  <outline>
    <contour>
      <point x="35" y="611" type="line"/>
      <point x="25" y="601" type="line"/>
      <point x="25" y="10" type="line"/>
      <point x="35" y="0" type="line"/>
      <point x="320" y="0" type="line"/>
      <point x="330" y="10" type="line"/>
      <point x="330" y="379" type="line"/>
      <point x="395" y="379" type="line"/>
      <point x="395" y="-107" type="line"/>
      <point x="405" y="-117" type="line"/>
      <point x="690" y="-87" type="line"/>
      <point x="700" y="-77" type="line"/>
      <point x="700" y="464" type="line"/>
      <point x="690" y="474" type="line"/>
      <point x="330" y="474" type="line"/>
      <point x="330" y="600" type="line"/>
      <point x="320" y="611" type="line"/>
    </contour>
  </outline>
</glyph>
<glyph name="i.alt1" format="1">
  <advance width="375"/>
  <outline>
    <contour>
      <point x="35" y="611" type="line"/>
      <point x="25" y="601" type="line"/>
      <point x="25" y="441" type="line"/>
      <point x="35" y="431" type="line"/>
      <point x="340" y="431" type="line"/>
      <point x="350" y="441" type="line"/>
      <point x="350" y="601" type="line"/>
      <point x="340" y="611" type="line"/>
    </contour>
    <contour>
      <point x="35" y="386" type="line"/>
      <point x="25" y="376" type="line"/>
      <point x="25" y="10" type="line"/>
      <point x="35" y="0" type="line"/>
      <point x="340" y="0" type="line"/>
      <point x="350" y="10" type="line"/>
      <point x="350" y="376" type="line"/>
      <point x="340" y="386" type="line"/>
    </contour>
  </outline>
</glyph>
<glyph name="k.alt1" format="1">
  <advance width="720"/>
  <outline>
    <contour>
      <point x="405" y="474" type="line"/>
      <point x="395" y="464" type="line"/>
      <point x="395" y="315" type="line"/>
      <point x="330" y="315" type="line"/>
      <point x="330" y="464" type="line"/>
      <point x="320" y="474" type="line"/>
      <point x="35" y="474" type="line"/>
      <point x="25" y="464" type="line"/>
      <point x="25" y="10" type="line"/>
      <point x="35" y="0" type="line"/>
      <point x="320" y="0" type="line"/>
      <point x="330" y="10" type="line"/>
      <point x="330" y="165" type="line"/>
      <point x="385" y="165" type="line"/>
      <point x="408" y="10" type="line"/>
      <point x="418" y="0" type="line"/>
      <point x="690" y="0" type="line"/>
      <point x="700" y="10" type="line"/>
      <point x="700" y="143" type="line"/>
      <point x="607" y="242" type="line"/>
      <point x="700" y="345" type="line"/>
      <point x="700" y="464" type="line"/>
      <point x="690" y="474" type="line"/>
    </contour>
  </outline>
</glyph>
<glyph name="l.alt1" format="1">
  <advance width="400"/>
  <outline>
    <contour>
      <point x="35" y="611" type="line"/>
      <point x="25" y="601" type="line"/>
      <point x="25" y="10" type="line"/>
      <point x="35" y="0" type="line"/>
      <point x="385" y="0" type="line"/>
      <point x="395" y="10" type="line"/>
      <point x="395" y="141" type="line"/>
      <point x="385" y="151" type="line"/>
      <point x="330" y="151" type="line"/>
      <point x="330" y="600" type="line"/>
      <point x="320" y="611" type="line"/>
    </contour>
  </outline>
</glyph>
<glyph name="m.alt1" format="1">
  <advance width="1119"/>
  <outline>
    <contour>
      <point x="147" y="474" type="line"/>
      <point x="22" y="354" type="line"/>
      <point x="22" y="10" type="line"/>
      <point x="32" y="0" type="line"/>
      <point x="327" y="0" type="line"/>
      <point x="337" y="10" type="line"/>
      <point x="337" y="326" type="line"/>
      <point x="402" y="326" type="line"/>
      <point x="402" y="10" type="line"/>
      <point x="412" y="0" type="line"/>
      <point x="707" y="0" type="line"/>
      <point x="717" y="10" type="line"/>
      <point x="717" y="326" type="line"/>
      <point x="782" y="326" type="line"/>
      <point x="782" y="10" type="line"/>
      <point x="792" y="0" type="line"/>
      <point x="1087" y="0" type="line"/>
      <point x="1097" y="10" type="line"/>
      <point x="1097" y="354" type="line"/>
      <point x="972" y="474" type="line"/>
      <point x="666" y="474" type="line"/>
      <point x="559" y="367" type="line"/>
      <point x="452" y="474" type="line"/>
    </contour>
  </outline>
</glyph>
<glyph name="m.alt3" format="1">
  <advance width="1102"/>
  <outline>
    <contour>
      <point x="35" y="474" type="line"/>
      <point x="25" y="464" type="line"/>
      <point x="25" y="10" type="line"/>
      <point x="35" y="0" type="line"/>
      <point x="320" y="0" type="line"/>
      <point x="330" y="10" type="line"/>
      <point x="330" y="379" type="line"/>
      <point x="395" y="379" type="line"/>
      <point x="395" y="10" type="line"/>
      <point x="405" y="0" type="line"/>
      <point x="690" y="0" type="line"/>
      <point x="700" y="10" type="line"/>
      <point x="700" y="379" type="line"/>
      <point x="765" y="379" type="line"/>
      <point x="765" y="10" type="line"/>
      <point x="775" y="0" type="line"/>
      <point x="1070" y="0" type="line"/>
      <point x="1080" y="10" type="line"/>
      <point x="1080" y="354" type="line"/>
      <point x="955" y="474" type="line"/>
    </contour>
  </outline>
</glyph>
<glyph name="m.alt4" format="1">
  <advance width="1095"/>
  <outline>
    <contour>
      <point x="795" y="474" type="line"/>
      <point x="547" y="374" type="line"/>
      <point x="300" y="474" type="line"/>
      <point x="35" y="474" type="line"/>
      <point x="25" y="464" type="line"/>
      <point x="25" y="10" type="line"/>
      <point x="35" y="0" type="line"/>
      <point x="320" y="0" type="line"/>
      <point x="330" y="10" type="line"/>
      <point x="330" y="316" type="line"/>
      <point x="395" y="316" type="line"/>
      <point x="395" y="10" type="line"/>
      <point x="405" y="0" type="line"/>
      <point x="690" y="0" type="line"/>
      <point x="700" y="10" type="line"/>
      <point x="700" y="316" type="line"/>
      <point x="765" y="316" type="line"/>
      <point x="765" y="10" type="line"/>
      <point x="775" y="0" type="line"/>
      <point x="1060" y="0" type="line"/>
      <point x="1070" y="10" type="line"/>
      <point x="1070" y="464" type="line"/>
      <point x="1060" y="474" type="line"/>
    </contour>
  </outline>
</glyph>
<glyph name="n.alt1" format="1">
  <advance width="725"/>
  <outline>
    <contour>
      <point x="35" y="474" type="line"/>
      <point x="25" y="464" type="line"/>
      <point x="25" y="10" type="line"/>
      <point x="35" y="0" type="line"/>
      <point x="320" y="0" type="line"/>
      <point x="330" y="10" type="line"/>
      <point x="330" y="379" type="line"/>
      <point x="395" y="379" type="line"/>
      <point x="395" y="10" type="line"/>
      <point x="405" y="0" type="line"/>
      <point x="690" y="0" type="line"/>
      <point x="700" y="10" type="line"/>
      <point x="700" y="464" type="line"/>
      <point x="690" y="474" type="line"/>
    </contour>
  </outline>
</glyph>
<glyph name="n.alt2" format="1">
  <advance width="725"/>
  <outline>
    <contour>
      <point x="435" y="474" type="line"/>
      <point x="397" y="364" type="line"/>
      <point x="240" y="474" type="line"/>
      <point x="35" y="474" type="line"/>
      <point x="25" y="464" type="line"/>
      <point x="25" y="10" type="line"/>
      <point x="35" y="0" type="line"/>
      <point x="320" y="0" type="line"/>
      <point x="330" y="10" type="line"/>
      <point x="330" y="316" type="line"/>
      <point x="395" y="316" type="line"/>
      <point x="395" y="10" type="line"/>
      <point x="405" y="0" type="line"/>
      <point x="690" y="0" type="line"/>
      <point x="700" y="10" type="line"/>
      <point x="700" y="464" type="line"/>
      <point x="690" y="474" type="line"/>
    </contour>
  </outline>
</glyph>
<glyph name="p.alt1" format="1">
  <advance width="730"/>
  <outline>
    <contour>
      <point x="416" y="474" type="line"/>
      <point x="327" y="385" type="line"/>
      <point x="289" y="474" type="line"/>
      <point x="35" y="474" type="line"/>
      <point x="25" y="464" type="line"/>
      <point x="25" y="-117" type="line"/>
      <point x="35" y="-127" type="line"/>
      <point x="320" y="-127" type="line"/>
      <point x="330" y="-117" type="line"/>
      <point x="330" y="0" type="line"/>
      <point x="585" y="0" type="line"/>
      <point x="710" y="120" type="line"/>
      <point x="710" y="354" type="line"/>
      <point x="585" y="474" type="line"/>
    </contour>
    <contour>
      <point x="395" y="346" type="line"/>
      <point x="395" y="90" type="line"/>
      <point x="330" y="90" type="line"/>
      <point x="330" y="346" type="line"/>
    </contour>
  </outline>
</glyph>
<glyph name="q.alt1" format="1">
  <advance width="730"/>
  <outline>
    <contour>
      <point x="145" y="474" type="line"/>
      <point x="20" y="354" type="line"/>
      <point x="20" y="120" type="line"/>
      <point x="145" y="0" type="line"/>
      <point x="314" y="0" type="line"/>
      <point x="400" y="86" type="line"/>
      <point x="400" y="-117" type="line"/>
      <point x="410" y="-127" type="line"/>
      <point x="695" y="-127" type="line"/>
      <point x="705" y="-117" type="line"/>
      <point x="705" y="464" type="line"/>
      <point x="695" y="474" type="line"/>
    </contour>
    <contour>
      <point x="335" y="384" type="line"/>
      <point x="400" y="384" type="line"/>
      <point x="400" y="128" type="line"/>
      <point x="335" y="128" type="line"/>
    </contour>
  </outline>
</glyph>
<glyph name="r.alt1" format="1">
  <advance width="600"/>
  <outline>
    <contour>
      <point x="25" y="464" type="line"/>
      <point x="25" y="10" type="line"/>
      <point x="35" y="0" type="line"/>
      <point x="330" y="0" type="line"/>
      <point x="340" y="10" type="line"/>
      <point x="340" y="196" type="line"/>
      <point x="585" y="196" type="line"/>
      <point x="595" y="206" type="line"/>
      <point x="595" y="464" type="line"/>
      <point x="583" y="474" type="line"/>
      <point x="426" y="474" type="line"/>
      <point x="337" y="348" type="line"/>
      <point x="300" y="474" type="line"/>
      <point x="35" y="474" type="line"/>
    </contour>
  </outline>
</glyph>
<glyph name="r.alt2" format="1">
  <advance width="430"/>
  <outline>
    <contour>
      <point x="25" y="464" type="line"/>
      <point x="25" y="10" type="line"/>
      <point x="35" y="0" type="line"/>
      <point x="320" y="0" type="line"/>
      <point x="330" y="10" type="line"/>
      <point x="330" y="313" type="line"/>
      <point x="415" y="313" type="line"/>
      <point x="425" y="323" type="line"/>
      <point x="425" y="464" type="line"/>
      <point x="415" y="474" type="line"/>
      <point x="35" y="474" type="line"/>
    </contour>
  </outline>
</glyph>
<glyph name="s.alt1" format="1">
  <advance width="725"/>
  <outline>
    <contour>
      <point x="120" y="474" type="line"/>
      <point x="25" y="385" type="line"/>
      <point x="25" y="256" type="line"/>
      <point x="101" y="186" type="line"/>
      <point x="395" y="186" type="line"/>
      <point x="395" y="108" type="line"/>
      <point x="330" y="108" type="line"/>
      <point x="330" y="141" type="line"/>
      <point x="320" y="151" type="line"/>
      <point x="25" y="151" type="line"/>
      <point x="15" y="141" type="line"/>
      <point x="15" y="-20" type="line" name="hr01"/>
      <point x="25" y="-30" type="line" name="hr02"/>
      <point x="289" y="-30" type="line"/>
      <point x="327" y="50" type="line"/>
      <point x="391" y="0" type="line" name="hr03"/>
      <point x="615" y="0" type="line"/>
      <point x="710" y="90" type="line"/>
      <point x="710" y="218" type="line"/>
      <point x="635" y="288" type="line"/>
      <point x="330" y="288" type="line"/>
      <point x="330" y="366" type="line"/>
      <point x="395" y="366" type="line"/>
      <point x="395" y="333" type="line"/>
      <point x="405" y="323" type="line"/>
      <point x="700" y="323" type="line"/>
      <point x="710" y="333" type="line"/>
      <point x="710" y="514" type="line"/>
      <point x="700" y="524" type="line"/>
      <point x="436" y="524" type="line"/>
      <point x="397" y="424" type="line"/>
      <point x="334" y="474" type="line"/>
    </contour>
  </outline>
</glyph>
<glyph name="t.alt1" format="1">
  <advance width="440"/>
  <outline>
    <contour>
      <point x="360" y="474" type="line"/>
      <point x="360" y="601" type="line"/>
      <point x="350" y="611" type="line"/>
      <point x="95" y="611" type="line"/>
      <point x="85" y="601" type="line"/>
      <point x="55" y="474" type="line"/>
      <point x="10" y="474" type="line"/>
      <point x="0" y="464" type="line"/>
      <point x="0" y="333" type="line"/>
      <point x="10" y="323" type="line"/>
      <point x="55" y="323" type="line"/>
      <point x="55" y="120" type="line"/>
      <point x="180" y="0" type="line"/>
      <point x="425" y="0" type="line"/>
      <point x="435" y="10" type="line"/>
      <point x="435" y="158" type="line"/>
      <point x="360" y="223" type="line"/>
      <point x="360" y="323" type="line"/>
      <point x="425" y="323" type="line"/>
      <point x="435" y="333" type="line"/>
      <point x="435" y="464" type="line"/>
      <point x="425" y="474" type="line"/>
    </contour>
  </outline>
</glyph>
<glyph name="t.alt2" format="1">
  <advance width="505"/>
  <outline>
    <contour>
      <point x="110" y="474" type="line"/>
      <point x="100" y="464" type="line"/>
      <point x="100" y="338" type="line"/>
      <point x="15" y="338" type="line"/>
      <point x="5" y="328" type="line"/>
      <point x="5" y="167" type="line"/>
      <point x="15" y="157" type="line"/>
      <point x="100" y="157" type="line"/>
      <point x="100" y="10" type="line"/>
      <point x="110" y="0" type="line"/>
      <point x="395" y="0" type="line"/>
      <point x="405" y="10" type="line"/>
      <point x="405" y="157" type="line"/>
      <point x="490" y="157" type="line"/>
      <point x="500" y="167" type="line"/>
      <point x="500" y="328" type="line"/>
      <point x="490" y="338" type="line"/>
      <point x="405" y="338" type="line"/>
      <point x="405" y="464" type="line"/>
      <point x="395" y="474" type="line"/>
    </contour>
  </outline>
</glyph>
<glyph name="y.alt1" format="1">
  <advance width="730"/>
  <outline>
    <contour>
      <point x="410" y="474" type="line"/>
      <point x="400" y="464" type="line"/>
      <point x="400" y="153" type="line"/>
      <point x="335" y="153" type="line"/>
      <point x="335" y="464" type="line"/>
      <point x="325" y="474" type="line"/>
      <point x="30" y="474" type="line"/>
      <point x="20" y="464" type="line"/>
      <point x="20" y="168" type="line"/>
      <point x="135" y="58" type="line"/>
      <point x="400" y="58" type="line"/>
      <point x="400" y="24" type="line"/>
      <point x="30" y="24" type="line"/>
      <point x="20" y="14" type="line"/>
      <point x="20" y="-117" type="line"/>
      <point x="30" y="-127" type="line"/>
      <point x="573" y="-127" type="line"/>
      <point x="705" y="0" type="line"/>
      <point x="705" y="464" type="line"/>
      <point x="695" y="474" type="line"/>
    </contour>
  </outline>
</glyph>
